<svg xmlns="http://www.w3.org/2000/svg" version="1.1" xmlns:xlink="http://www.w3.org/1999/xlink" xmlns:svgjs="http://svgjs.dev/svgjs" width="414" height="896" preserveAspectRatio="none" viewBox="0 0 414 896"><g mask="url(&quot;#SvgjsMask1069&quot;)" fill="none"><rect width="414" height="896" x="0" y="0" fill="rgba(188, 184, 177, 1)"></rect><g mask="url(&quot;#SvgjsMask1070&quot;)"><path d="M266.5 136.5L383.5 136.5L396.5 149.5L396.5 188.5L409.5 201.5L409.5 266.5" stroke-width="2.17" stroke="rgba(244, 243, 238, 1)"></path><path d="M263.25 136.5 a3.25 3.25 0 1 0 6.5 0 a3.25 3.25 0 1 0 -6.5 0zM406.25 266.5 a3.25 3.25 0 1 0 6.5 0 a3.25 3.25 0 1 0 -6.5 0z" fill="rgba(244, 243, 238, 1)"></path><path d="M331.5 578.5L383.5 630.5L383.5 825.5" stroke-width="2.17" stroke="rgba(244, 243, 238, 1)"></path><path d="M328.25 578.5 a3.25 3.25 0 1 0 6.5 0 a3.25 3.25 0 1 0 -6.5 0zM380.25 825.5 a3.25 3.25 0 1 0 6.5 0 a3.25 3.25 0 1 0 -6.5 0z" fill="rgba(244, 243, 238, 1)"></path><path d="M32.5 149.5L32.5 6.5" stroke-width="2.17" stroke="rgba(244, 243, 238, 1)"></path><path d="M29.25 149.5 a3.25 3.25 0 1 0 6.5 0 a3.25 3.25 0 1 0 -6.5 0zM29.25 6.5 a3.25 3.25 0 1 0 6.5 0 a3.25 3.25 0 1 0 -6.5 0z" fill="rgba(244, 243, 238, 1)"></path><path d="M84.5 175.5L58.5 149.5L45.5 149.5L6.5 188.5L6.5 357.5" stroke-width="2.17" stroke="rgba(244, 243, 238, 1)"></path><path d="M81.25 175.5 a3.25 3.25 0 1 0 6.5 0 a3.25 3.25 0 1 0 -6.5 0zM3.25 357.5 a3.25 3.25 0 1 0 6.5 0 a3.25 3.25 0 1 0 -6.5 0z" fill="rgba(244, 243, 238, 1)"></path><path d="M45.5 253.5L45.5 487.5L32.5 500.5" stroke-width="2.17" stroke="rgba(244, 243, 238, 1)"></path><path d="M42.25 253.5 a3.25 3.25 0 1 0 6.5 0 a3.25 3.25 0 1 0 -6.5 0zM29.25 500.5 a3.25 3.25 0 1 0 6.5 0 a3.25 3.25 0 1 0 -6.5 0z" fill="rgba(244, 243, 238, 1)"></path><path d="M123.5 656.5L123.5 643.5L6.5 526.5L6.5 422.5L19.5 409.5" stroke-width="2.17" stroke="rgba(244, 243, 238, 1)"></path><path d="M120.25 656.5 a3.25 3.25 0 1 0 6.5 0 a3.25 3.25 0 1 0 -6.5 0zM16.25 409.5 a3.25 3.25 0 1 0 6.5 0 a3.25 3.25 0 1 0 -6.5 0z" fill="rgba(244, 243, 238, 1)"></path><path d="M84.5 253.5L123.5 214.5L123.5 71.5L58.5 6.5" stroke-width="2.17" stroke="rgba(244, 243, 238, 1)"></path><path d="M81.25 253.5 a3.25 3.25 0 1 0 6.5 0 a3.25 3.25 0 1 0 -6.5 0zM55.25 6.5 a3.25 3.25 0 1 0 6.5 0 a3.25 3.25 0 1 0 -6.5 0z" fill="rgba(244, 243, 238, 1)"></path><path d="M45.5 708.5L71.5 682.5L110.5 682.5L214.5 578.5L279.5 578.5L292.5 565.5" stroke-width="2.17" stroke="rgba(244, 243, 238, 1)"></path><path d="M42.25 708.5 a3.25 3.25 0 1 0 6.5 0 a3.25 3.25 0 1 0 -6.5 0zM289.25 565.5 a3.25 3.25 0 1 0 6.5 0 a3.25 3.25 0 1 0 -6.5 0z" fill="rgba(244, 243, 238, 1)"></path><path d="M357.5 422.5L357.5 565.5L344.5 578.5" stroke-width="2.17" stroke="rgba(244, 243, 238, 1)"></path><path d="M354.25 422.5 a3.25 3.25 0 1 0 6.5 0 a3.25 3.25 0 1 0 -6.5 0zM341.25 578.5 a3.25 3.25 0 1 0 6.5 0 a3.25 3.25 0 1 0 -6.5 0z" fill="rgba(244, 243, 238, 1)"></path><path d="M305.5 656.5L305.5 695.5L370.5 760.5L370.5 890.5" stroke-width="2.17" stroke="rgba(244, 243, 238, 1)"></path><path d="M302.25 656.5 a3.25 3.25 0 1 0 6.5 0 a3.25 3.25 0 1 0 -6.5 0zM367.25 890.5 a3.25 3.25 0 1 0 6.5 0 a3.25 3.25 0 1 0 -6.5 0z" fill="rgba(244, 243, 238, 1)"></path><path d="M188.5 201.5L136.5 201.5" stroke-width="2.17" stroke="rgba(244, 243, 238, 1)"></path><path d="M185.25 201.5 a3.25 3.25 0 1 0 6.5 0 a3.25 3.25 0 1 0 -6.5 0zM133.25 201.5 a3.25 3.25 0 1 0 6.5 0 a3.25 3.25 0 1 0 -6.5 0z" fill="rgba(244, 243, 238, 1)"></path><path d="M409.5 877.5L409.5 786.5L396.5 773.5L396.5 630.5" stroke-width="2.17" stroke="rgba(244, 243, 238, 1)"></path><path d="M406.25 877.5 a3.25 3.25 0 1 0 6.5 0 a3.25 3.25 0 1 0 -6.5 0zM393.25 630.5 a3.25 3.25 0 1 0 6.5 0 a3.25 3.25 0 1 0 -6.5 0z" fill="rgba(244, 243, 238, 1)"></path><path d="M188.5 773.5L136.5 825.5L136.5 877.5L149.5 890.5L240.5 890.5L253.5 877.5L279.5 877.5" stroke-width="2.17" stroke="rgba(244, 243, 238, 1)"></path><path d="M185.25 773.5 a3.25 3.25 0 1 0 6.5 0 a3.25 3.25 0 1 0 -6.5 0zM276.25 877.5 a3.25 3.25 0 1 0 6.5 0 a3.25 3.25 0 1 0 -6.5 0z" fill="rgba(244, 243, 238, 1)"></path><path d="M331.5 318.5L357.5 344.5L357.5 409.5L409.5 461.5L409.5 565.5" stroke-width="2.17" stroke="rgba(244, 243, 238, 1)"></path><path d="M328.25 318.5 a3.25 3.25 0 1 0 6.5 0 a3.25 3.25 0 1 0 -6.5 0zM406.25 565.5 a3.25 3.25 0 1 0 6.5 0 a3.25 3.25 0 1 0 -6.5 0z" fill="rgba(244, 243, 238, 1)"></path><path d="M253.5 773.5L253.5 799.5L175.5 877.5L149.5 877.5" stroke-width="2.17" stroke="rgba(244, 243, 238, 1)"></path><path d="M250.25 773.5 a3.25 3.25 0 1 0 6.5 0 a3.25 3.25 0 1 0 -6.5 0zM146.25 877.5 a3.25 3.25 0 1 0 6.5 0 a3.25 3.25 0 1 0 -6.5 0z" fill="rgba(244, 243, 238, 1)"></path><path d="M357.5 669.5L305.5 617.5L305.5 565.5L344.5 526.5L344.5 448.5L318.5 422.5" stroke-width="2.17" stroke="rgba(244, 243, 238, 1)"></path><path d="M354.25 669.5 a3.25 3.25 0 1 0 6.5 0 a3.25 3.25 0 1 0 -6.5 0zM315.25 422.5 a3.25 3.25 0 1 0 6.5 0 a3.25 3.25 0 1 0 -6.5 0z" fill="rgba(244, 243, 238, 1)"></path><path d="M110.5 266.5L97.5 266.5L84.5 279.5L58.5 279.5" stroke-width="2.17" stroke="rgba(244, 243, 238, 1)"></path><path d="M107.25 266.5 a3.25 3.25 0 1 0 6.5 0 a3.25 3.25 0 1 0 -6.5 0zM55.25 279.5 a3.25 3.25 0 1 0 6.5 0 a3.25 3.25 0 1 0 -6.5 0z" fill="rgba(244, 243, 238, 1)"></path><path d="M227.5 513.5L292.5 448.5L292.5 383.5L331.5 344.5L344.5 344.5" stroke-width="2.17" stroke="rgba(244, 243, 238, 1)"></path><path d="M224.25 513.5 a3.25 3.25 0 1 0 6.5 0 a3.25 3.25 0 1 0 -6.5 0zM341.25 344.5 a3.25 3.25 0 1 0 6.5 0 a3.25 3.25 0 1 0 -6.5 0z" fill="rgba(244, 243, 238, 1)"></path><path d="M331.5 565.5L331.5 552.5L344.5 539.5" stroke-width="2.17" stroke="rgba(244, 243, 238, 1)"></path><path d="M328.25 565.5 a3.25 3.25 0 1 0 6.5 0 a3.25 3.25 0 1 0 -6.5 0zM341.25 539.5 a3.25 3.25 0 1 0 6.5 0 a3.25 3.25 0 1 0 -6.5 0z" fill="rgba(244, 243, 238, 1)"></path><path d="M136.5 695.5L136.5 669.5L214.5 591.5L292.5 591.5" stroke-width="2.17" stroke="rgba(244, 243, 238, 1)"></path><path d="M133.25 695.5 a3.25 3.25 0 1 0 6.5 0 a3.25 3.25 0 1 0 -6.5 0zM289.25 591.5 a3.25 3.25 0 1 0 6.5 0 a3.25 3.25 0 1 0 -6.5 0z" fill="rgba(244, 243, 238, 1)"></path><path d="M214.5 370.5L45.5 539.5L32.5 539.5L19.5 526.5L19.5 487.5" stroke-width="2.17" stroke="rgba(244, 243, 238, 1)"></path><path d="M211.25 370.5 a3.25 3.25 0 1 0 6.5 0 a3.25 3.25 0 1 0 -6.5 0zM16.25 487.5 a3.25 3.25 0 1 0 6.5 0 a3.25 3.25 0 1 0 -6.5 0z" fill="rgba(244, 243, 238, 1)"></path><path d="M292.5 175.5L123.5 6.5L71.5 6.5" stroke-width="2.17" stroke="rgba(244, 243, 238, 1)"></path><path d="M289.25 175.5 a3.25 3.25 0 1 0 6.5 0 a3.25 3.25 0 1 0 -6.5 0zM68.25 6.5 a3.25 3.25 0 1 0 6.5 0 a3.25 3.25 0 1 0 -6.5 0z" fill="rgba(244, 243, 238, 1)"></path><path d="M357.5 721.5L357.5 734.5L370.5 747.5" stroke-width="2.17" stroke="rgba(244, 243, 238, 1)"></path><path d="M354.25 721.5 a3.25 3.25 0 1 0 6.5 0 a3.25 3.25 0 1 0 -6.5 0zM367.25 747.5 a3.25 3.25 0 1 0 6.5 0 a3.25 3.25 0 1 0 -6.5 0z" fill="rgba(244, 243, 238, 1)"></path><path d="M227.5 747.5L149.5 825.5L149.5 851.5L162.5 864.5L175.5 864.5L240.5 799.5L240.5 773.5L227.5 760.5" stroke-width="2.17" stroke="rgba(244, 243, 238, 1)"></path><path d="M224.25 747.5 a3.25 3.25 0 1 0 6.5 0 a3.25 3.25 0 1 0 -6.5 0zM224.25 760.5 a3.25 3.25 0 1 0 6.5 0 a3.25 3.25 0 1 0 -6.5 0z" fill="rgba(244, 243, 238, 1)"></path><path d="M253.5 474.5L253.5 227.5" stroke-width="2.17" stroke="rgba(244, 243, 238, 1)"></path><path d="M250.25 474.5 a3.25 3.25 0 1 0 6.5 0 a3.25 3.25 0 1 0 -6.5 0zM250.25 227.5 a3.25 3.25 0 1 0 6.5 0 a3.25 3.25 0 1 0 -6.5 0z" fill="rgba(244, 243, 238, 1)"></path><path d="M175.5 45.5L331.5 45.5L357.5 71.5L409.5 71.5" stroke-width="2.17" stroke="rgba(244, 243, 238, 1)"></path><path d="M172.25 45.5 a3.25 3.25 0 1 0 6.5 0 a3.25 3.25 0 1 0 -6.5 0zM406.25 71.5 a3.25 3.25 0 1 0 6.5 0 a3.25 3.25 0 1 0 -6.5 0z" fill="rgba(244, 243, 238, 1)"></path><path d="M292.5 695.5L292.5 604.5" stroke-width="2.17" stroke="rgba(244, 243, 238, 1)"></path><path d="M289.25 695.5 a3.25 3.25 0 1 0 6.5 0 a3.25 3.25 0 1 0 -6.5 0zM289.25 604.5 a3.25 3.25 0 1 0 6.5 0 a3.25 3.25 0 1 0 -6.5 0z" fill="rgba(244, 243, 238, 1)"></path><path d="M344.5 175.5L279.5 240.5L279.5 331.5L305.5 357.5" stroke-width="2.17" stroke="rgba(244, 243, 238, 1)"></path><path d="M341.25 175.5 a3.25 3.25 0 1 0 6.5 0 a3.25 3.25 0 1 0 -6.5 0zM302.25 357.5 a3.25 3.25 0 1 0 6.5 0 a3.25 3.25 0 1 0 -6.5 0z" fill="rgba(244, 243, 238, 1)"></path><path d="M396.5 58.5L396.5 6.5" stroke-width="2.17" stroke="rgba(244, 243, 238, 1)"></path><path d="M393.25 58.5 a3.25 3.25 0 1 0 6.5 0 a3.25 3.25 0 1 0 -6.5 0zM393.25 6.5 a3.25 3.25 0 1 0 6.5 0 a3.25 3.25 0 1 0 -6.5 0z" fill="rgba(244, 243, 238, 1)"></path><path d="M19.5 110.5L6.5 123.5L6.5 175.5" stroke-width="2.17" stroke="rgba(244, 243, 238, 1)"></path><path d="M16.25 110.5 a3.25 3.25 0 1 0 6.5 0 a3.25 3.25 0 1 0 -6.5 0zM3.25 175.5 a3.25 3.25 0 1 0 6.5 0 a3.25 3.25 0 1 0 -6.5 0z" fill="rgba(244, 243, 238, 1)"></path><path d="M214.5 604.5L279.5 669.5L279.5 851.5" stroke-width="2.17" stroke="rgba(244, 243, 238, 1)"></path><path d="M211.25 604.5 a3.25 3.25 0 1 0 6.5 0 a3.25 3.25 0 1 0 -6.5 0zM276.25 851.5 a3.25 3.25 0 1 0 6.5 0 a3.25 3.25 0 1 0 -6.5 0z" fill="rgba(244, 243, 238, 1)"></path><path d="M162.5 526.5L175.5 526.5L201.5 552.5L305.5 552.5L331.5 526.5L331.5 448.5" stroke-width="2.17" stroke="rgba(244, 243, 238, 1)"></path><path d="M159.25 526.5 a3.25 3.25 0 1 0 6.5 0 a3.25 3.25 0 1 0 -6.5 0zM328.25 448.5 a3.25 3.25 0 1 0 6.5 0 a3.25 3.25 0 1 0 -6.5 0z" fill="rgba(244, 243, 238, 1)"></path><path d="M175.5 461.5L136.5 461.5L45.5 552.5" stroke-width="2.17" stroke="rgba(244, 243, 238, 1)"></path><path d="M172.25 461.5 a3.25 3.25 0 1 0 6.5 0 a3.25 3.25 0 1 0 -6.5 0zM42.25 552.5 a3.25 3.25 0 1 0 6.5 0 a3.25 3.25 0 1 0 -6.5 0z" fill="rgba(244, 243, 238, 1)"></path><path d="M266.5 734.5L266.5 864.5" stroke-width="2.17" stroke="rgba(244, 243, 238, 1)"></path><path d="M263.25 734.5 a3.25 3.25 0 1 0 6.5 0 a3.25 3.25 0 1 0 -6.5 0zM263.25 864.5 a3.25 3.25 0 1 0 6.5 0 a3.25 3.25 0 1 0 -6.5 0z" fill="rgba(244, 243, 238, 1)"></path><path d="M214.5 448.5L188.5 422.5L188.5 409.5L240.5 357.5L240.5 292.5L201.5 253.5L149.5 253.5" stroke-width="2.17" stroke="rgba(244, 243, 238, 1)"></path><path d="M211.25 448.5 a3.25 3.25 0 1 0 6.5 0 a3.25 3.25 0 1 0 -6.5 0zM146.25 253.5 a3.25 3.25 0 1 0 6.5 0 a3.25 3.25 0 1 0 -6.5 0z" fill="rgba(244, 243, 238, 1)"></path><path d="M266.5 162.5L201.5 97.5L188.5 97.5L175.5 110.5L136.5 110.5" stroke-width="2.17" stroke="rgba(244, 243, 238, 1)"></path><path d="M263.25 162.5 a3.25 3.25 0 1 0 6.5 0 a3.25 3.25 0 1 0 -6.5 0zM133.25 110.5 a3.25 3.25 0 1 0 6.5 0 a3.25 3.25 0 1 0 -6.5 0z" fill="rgba(244, 243, 238, 1)"></path><path d="M370.5 500.5L370.5 604.5L383.5 617.5L409.5 617.5" stroke-width="2.17" stroke="rgba(244, 243, 238, 1)"></path><path d="M367.25 500.5 a3.25 3.25 0 1 0 6.5 0 a3.25 3.25 0 1 0 -6.5 0zM406.25 617.5 a3.25 3.25 0 1 0 6.5 0 a3.25 3.25 0 1 0 -6.5 0z" fill="rgba(244, 243, 238, 1)"></path><path d="M266.5 396.5L266.5 175.5L240.5 149.5" stroke-width="2.17" stroke="rgba(244, 243, 238, 1)"></path><path d="M263.25 396.5 a3.25 3.25 0 1 0 6.5 0 a3.25 3.25 0 1 0 -6.5 0zM237.25 149.5 a3.25 3.25 0 1 0 6.5 0 a3.25 3.25 0 1 0 -6.5 0z" fill="rgba(244, 243, 238, 1)"></path><path d="M162.5 825.5L175.5 838.5L188.5 838.5L227.5 799.5L227.5 773.5" stroke-width="2.17" stroke="rgba(244, 243, 238, 1)"></path><path d="M159.25 825.5 a3.25 3.25 0 1 0 6.5 0 a3.25 3.25 0 1 0 -6.5 0zM224.25 773.5 a3.25 3.25 0 1 0 6.5 0 a3.25 3.25 0 1 0 -6.5 0z" fill="rgba(244, 243, 238, 1)"></path><path d="M19.5 838.5L6.5 851.5L6.5 890.5" stroke-width="2.17" stroke="rgba(244, 243, 238, 1)"></path><path d="M16.25 838.5 a3.25 3.25 0 1 0 6.5 0 a3.25 3.25 0 1 0 -6.5 0zM3.25 890.5 a3.25 3.25 0 1 0 6.5 0 a3.25 3.25 0 1 0 -6.5 0z" fill="rgba(244, 243, 238, 1)"></path><path d="M19.5 708.5L123.5 812.5L123.5 890.5" stroke-width="2.17" stroke="rgba(244, 243, 238, 1)"></path><path d="M16.25 708.5 a3.25 3.25 0 1 0 6.5 0 a3.25 3.25 0 1 0 -6.5 0zM120.25 890.5 a3.25 3.25 0 1 0 6.5 0 a3.25 3.25 0 1 0 -6.5 0z" fill="rgba(244, 243, 238, 1)"></path><path d="M201.5 110.5L188.5 110.5L136.5 162.5L136.5 188.5" stroke-width="2.17" stroke="rgba(244, 243, 238, 1)"></path><path d="M198.25 110.5 a3.25 3.25 0 1 0 6.5 0 a3.25 3.25 0 1 0 -6.5 0zM133.25 188.5 a3.25 3.25 0 1 0 6.5 0 a3.25 3.25 0 1 0 -6.5 0z" fill="rgba(244, 243, 238, 1)"></path><path d="M396.5 552.5L396.5 578.5L409.5 591.5L409.5 604.5" stroke-width="2.17" stroke="rgba(244, 243, 238, 1)"></path><path d="M393.25 552.5 a3.25 3.25 0 1 0 6.5 0 a3.25 3.25 0 1 0 -6.5 0zM406.25 604.5 a3.25 3.25 0 1 0 6.5 0 a3.25 3.25 0 1 0 -6.5 0z" fill="rgba(244, 243, 238, 1)"></path><path d="M227.5 409.5L240.5 422.5L240.5 487.5L201.5 526.5L201.5 539.5" stroke-width="2.17" stroke="rgba(244, 243, 238, 1)"></path><path d="M224.25 409.5 a3.25 3.25 0 1 0 6.5 0 a3.25 3.25 0 1 0 -6.5 0zM198.25 539.5 a3.25 3.25 0 1 0 6.5 0 a3.25 3.25 0 1 0 -6.5 0z" fill="rgba(244, 243, 238, 1)"></path><path d="M266.5 617.5L279.5 630.5L279.5 656.5" stroke-width="2.17" stroke="rgba(244, 243, 238, 1)"></path><path d="M263.25 617.5 a3.25 3.25 0 1 0 6.5 0 a3.25 3.25 0 1 0 -6.5 0zM276.25 656.5 a3.25 3.25 0 1 0 6.5 0 a3.25 3.25 0 1 0 -6.5 0z" fill="rgba(244, 243, 238, 1)"></path><path d="M214.5 279.5L188.5 305.5L188.5 383.5L71.5 500.5L45.5 500.5" stroke-width="2.17" stroke="rgba(244, 243, 238, 1)"></path><path d="M211.25 279.5 a3.25 3.25 0 1 0 6.5 0 a3.25 3.25 0 1 0 -6.5 0zM42.25 500.5 a3.25 3.25 0 1 0 6.5 0 a3.25 3.25 0 1 0 -6.5 0z" fill="rgba(244, 243, 238, 1)"></path><path d="M97.5 422.5L58.5 422.5" stroke-width="2.17" stroke="rgba(244, 243, 238, 1)"></path><path d="M94.25 422.5 a3.25 3.25 0 1 0 6.5 0 a3.25 3.25 0 1 0 -6.5 0zM55.25 422.5 a3.25 3.25 0 1 0 6.5 0 a3.25 3.25 0 1 0 -6.5 0z" fill="rgba(244, 243, 238, 1)"></path><path d="M292.5 279.5L318.5 305.5L409.5 305.5" stroke-width="2.17" stroke="rgba(244, 243, 238, 1)"></path><path d="M289.25 279.5 a3.25 3.25 0 1 0 6.5 0 a3.25 3.25 0 1 0 -6.5 0zM406.25 305.5 a3.25 3.25 0 1 0 6.5 0 a3.25 3.25 0 1 0 -6.5 0z" fill="rgba(244, 243, 238, 1)"></path><path d="M136.5 279.5L136.5 227.5L149.5 214.5L253.5 214.5" stroke-width="2.17" stroke="rgba(244, 243, 238, 1)"></path><path d="M133.25 279.5 a3.25 3.25 0 1 0 6.5 0 a3.25 3.25 0 1 0 -6.5 0zM250.25 214.5 a3.25 3.25 0 1 0 6.5 0 a3.25 3.25 0 1 0 -6.5 0z" fill="rgba(244, 243, 238, 1)"></path><path d="M318.5 656.5L318.5 695.5L344.5 721.5" stroke-width="2.17" stroke="rgba(244, 243, 238, 1)"></path><path d="M315.25 656.5 a3.25 3.25 0 1 0 6.5 0 a3.25 3.25 0 1 0 -6.5 0zM341.25 721.5 a3.25 3.25 0 1 0 6.5 0 a3.25 3.25 0 1 0 -6.5 0z" fill="rgba(244, 243, 238, 1)"></path><path d="M97.5 461.5L71.5 487.5L58.5 487.5" stroke-width="2.17" stroke="rgba(244, 243, 238, 1)"></path><path d="M94.25 461.5 a3.25 3.25 0 1 0 6.5 0 a3.25 3.25 0 1 0 -6.5 0zM55.25 487.5 a3.25 3.25 0 1 0 6.5 0 a3.25 3.25 0 1 0 -6.5 0z" fill="rgba(244, 243, 238, 1)"></path><path d="M162.5 175.5L175.5 188.5L253.5 188.5" stroke-width="2.17" stroke="rgba(244, 243, 238, 1)"></path><path d="M159.25 175.5 a3.25 3.25 0 1 0 6.5 0 a3.25 3.25 0 1 0 -6.5 0zM250.25 188.5 a3.25 3.25 0 1 0 6.5 0 a3.25 3.25 0 1 0 -6.5 0z" fill="rgba(244, 243, 238, 1)"></path><path d="M136.5 344.5L123.5 331.5L71.5 331.5L58.5 344.5L58.5 370.5L123.5 435.5" stroke-width="2.17" stroke="rgba(244, 243, 238, 1)"></path><path d="M133.25 344.5 a3.25 3.25 0 1 0 6.5 0 a3.25 3.25 0 1 0 -6.5 0zM120.25 435.5 a3.25 3.25 0 1 0 6.5 0 a3.25 3.25 0 1 0 -6.5 0z" fill="rgba(244, 243, 238, 1)"></path><path d="M253.5 708.5L240.5 695.5L240.5 643.5L214.5 617.5L201.5 617.5L149.5 669.5L149.5 760.5" stroke-width="2.17" stroke="rgba(244, 243, 238, 1)"></path><path d="M250.25 708.5 a3.25 3.25 0 1 0 6.5 0 a3.25 3.25 0 1 0 -6.5 0zM146.25 760.5 a3.25 3.25 0 1 0 6.5 0 a3.25 3.25 0 1 0 -6.5 0z" fill="rgba(244, 243, 238, 1)"></path><path d="M357.5 84.5L409.5 136.5L409.5 162.5" stroke-width="2.17" stroke="rgba(244, 243, 238, 1)"></path><path d="M354.25 84.5 a3.25 3.25 0 1 0 6.5 0 a3.25 3.25 0 1 0 -6.5 0zM406.25 162.5 a3.25 3.25 0 1 0 6.5 0 a3.25 3.25 0 1 0 -6.5 0z" fill="rgba(244, 243, 238, 1)"></path><path d="M357.5 331.5L396.5 331.5L409.5 318.5" stroke-width="2.17" stroke="rgba(244, 243, 238, 1)"></path><path d="M354.25 331.5 a3.25 3.25 0 1 0 6.5 0 a3.25 3.25 0 1 0 -6.5 0zM406.25 318.5 a3.25 3.25 0 1 0 6.5 0 a3.25 3.25 0 1 0 -6.5 0z" fill="rgba(244, 243, 238, 1)"></path><path d="M97.5 890.5L19.5 890.5" stroke-width="2.17" stroke="rgba(244, 243, 238, 1)"></path><path d="M94.25 890.5 a3.25 3.25 0 1 0 6.5 0 a3.25 3.25 0 1 0 -6.5 0zM16.25 890.5 a3.25 3.25 0 1 0 6.5 0 a3.25 3.25 0 1 0 -6.5 0z" fill="rgba(244, 243, 238, 1)"></path><path d="M201.5 149.5L227.5 175.5L253.5 175.5" stroke-width="2.17" stroke="rgba(244, 243, 238, 1)"></path><path d="M198.25 149.5 a3.25 3.25 0 1 0 6.5 0 a3.25 3.25 0 1 0 -6.5 0zM250.25 175.5 a3.25 3.25 0 1 0 6.5 0 a3.25 3.25 0 1 0 -6.5 0z" fill="rgba(244, 243, 238, 1)"></path><path d="M71.5 240.5L71.5 175.5L58.5 162.5L45.5 162.5L19.5 188.5L19.5 214.5L71.5 266.5L84.5 266.5" stroke-width="2.17" stroke="rgba(244, 243, 238, 1)"></path><path d="M68.25 240.5 a3.25 3.25 0 1 0 6.5 0 a3.25 3.25 0 1 0 -6.5 0zM81.25 266.5 a3.25 3.25 0 1 0 6.5 0 a3.25 3.25 0 1 0 -6.5 0z" fill="rgba(244, 243, 238, 1)"></path><path d="M123.5 279.5L123.5 318.5L175.5 370.5L175.5 383.5L136.5 422.5L123.5 422.5L71.5 370.5L71.5 344.5" stroke-width="2.17" stroke="rgba(244, 243, 238, 1)"></path><path d="M120.25 279.5 a3.25 3.25 0 1 0 6.5 0 a3.25 3.25 0 1 0 -6.5 0zM68.25 344.5 a3.25 3.25 0 1 0 6.5 0 a3.25 3.25 0 1 0 -6.5 0z" fill="rgba(244, 243, 238, 1)"></path><path d="M71.5 799.5L110.5 838.5L110.5 890.5" stroke-width="2.17" stroke="rgba(244, 243, 238, 1)"></path><path d="M68.25 799.5 a3.25 3.25 0 1 0 6.5 0 a3.25 3.25 0 1 0 -6.5 0zM107.25 890.5 a3.25 3.25 0 1 0 6.5 0 a3.25 3.25 0 1 0 -6.5 0z" fill="rgba(244, 243, 238, 1)"></path><path d="M58.5 461.5L84.5 461.5L97.5 448.5L110.5 448.5" stroke-width="2.17" stroke="rgba(244, 243, 238, 1)"></path><path d="M55.25 461.5 a3.25 3.25 0 1 0 6.5 0 a3.25 3.25 0 1 0 -6.5 0zM107.25 448.5 a3.25 3.25 0 1 0 6.5 0 a3.25 3.25 0 1 0 -6.5 0z" fill="rgba(244, 243, 238, 1)"></path><path d="M370.5 357.5L396.5 383.5L396.5 409.5L383.5 422.5" stroke-width="2.17" stroke="rgba(244, 243, 238, 1)"></path><path d="M367.25 357.5 a3.25 3.25 0 1 0 6.5 0 a3.25 3.25 0 1 0 -6.5 0zM380.25 422.5 a3.25 3.25 0 1 0 6.5 0 a3.25 3.25 0 1 0 -6.5 0z" fill="rgba(244, 243, 238, 1)"></path><path d="M357.5 188.5L357.5 175.5L331.5 149.5L279.5 149.5" stroke-width="2.17" stroke="rgba(244, 243, 238, 1)"></path><path d="M354.25 188.5 a3.25 3.25 0 1 0 6.5 0 a3.25 3.25 0 1 0 -6.5 0zM276.25 149.5 a3.25 3.25 0 1 0 6.5 0 a3.25 3.25 0 1 0 -6.5 0z" fill="rgba(244, 243, 238, 1)"></path><path d="M318.5 513.5L240.5 513.5L214.5 539.5" stroke-width="2.17" stroke="rgba(244, 243, 238, 1)"></path><path d="M315.25 513.5 a3.25 3.25 0 1 0 6.5 0 a3.25 3.25 0 1 0 -6.5 0zM211.25 539.5 a3.25 3.25 0 1 0 6.5 0 a3.25 3.25 0 1 0 -6.5 0z" fill="rgba(244, 243, 238, 1)"></path><path d="M32.5 812.5L6.5 838.5" stroke-width="2.17" stroke="rgba(244, 243, 238, 1)"></path><path d="M29.25 812.5 a3.25 3.25 0 1 0 6.5 0 a3.25 3.25 0 1 0 -6.5 0zM3.25 838.5 a3.25 3.25 0 1 0 6.5 0 a3.25 3.25 0 1 0 -6.5 0z" fill="rgba(244, 243, 238, 1)"></path><path d="M6.5 539.5L6.5 734.5L58.5 786.5" stroke-width="2.17" stroke="rgba(244, 243, 238, 1)"></path><path d="M3.25 539.5 a3.25 3.25 0 1 0 6.5 0 a3.25 3.25 0 1 0 -6.5 0zM55.25 786.5 a3.25 3.25 0 1 0 6.5 0 a3.25 3.25 0 1 0 -6.5 0z" fill="rgba(244, 243, 238, 1)"></path><path d="M214.5 682.5L188.5 656.5L175.5 656.5L162.5 669.5L162.5 786.5L136.5 812.5" stroke-width="2.17" stroke="rgba(244, 243, 238, 1)"></path><path d="M211.25 682.5 a3.25 3.25 0 1 0 6.5 0 a3.25 3.25 0 1 0 -6.5 0zM133.25 812.5 a3.25 3.25 0 1 0 6.5 0 a3.25 3.25 0 1 0 -6.5 0z" fill="rgba(244, 243, 238, 1)"></path><path d="M84.5 292.5L58.5 292.5" stroke-width="2.17" stroke="rgba(244, 243, 238, 1)"></path><path d="M81.25 292.5 a3.25 3.25 0 1 0 6.5 0 a3.25 3.25 0 1 0 -6.5 0zM55.25 292.5 a3.25 3.25 0 1 0 6.5 0 a3.25 3.25 0 1 0 -6.5 0z" fill="rgba(244, 243, 238, 1)"></path><path d="M201.5 331.5L227.5 331.5" stroke-width="2.17" stroke="rgba(244, 243, 238, 1)"></path><path d="M198.25 331.5 a3.25 3.25 0 1 0 6.5 0 a3.25 3.25 0 1 0 -6.5 0zM224.25 331.5 a3.25 3.25 0 1 0 6.5 0 a3.25 3.25 0 1 0 -6.5 0z" fill="rgba(244, 243, 238, 1)"></path><path d="M396.5 214.5L396.5 279.5L409.5 292.5" stroke-width="2.17" stroke="rgba(244, 243, 238, 1)"></path><path d="M393.25 214.5 a3.25 3.25 0 1 0 6.5 0 a3.25 3.25 0 1 0 -6.5 0zM406.25 292.5 a3.25 3.25 0 1 0 6.5 0 a3.25 3.25 0 1 0 -6.5 0z" fill="rgba(244, 243, 238, 1)"></path><path d="M266.5 682.5L266.5 669.5L253.5 656.5" stroke-width="2.17" stroke="rgba(244, 243, 238, 1)"></path><path d="M263.25 682.5 a3.25 3.25 0 1 0 6.5 0 a3.25 3.25 0 1 0 -6.5 0zM250.25 656.5 a3.25 3.25 0 1 0 6.5 0 a3.25 3.25 0 1 0 -6.5 0z" fill="rgba(244, 243, 238, 1)"></path><path d="M331.5 110.5L331.5 97.5L344.5 84.5L344.5 71.5L331.5 58.5L188.5 58.5" stroke-width="2.17" stroke="rgba(244, 243, 238, 1)"></path><path d="M328.25 110.5 a3.25 3.25 0 1 0 6.5 0 a3.25 3.25 0 1 0 -6.5 0zM185.25 58.5 a3.25 3.25 0 1 0 6.5 0 a3.25 3.25 0 1 0 -6.5 0z" fill="rgba(244, 243, 238, 1)"></path><path d="M175.5 734.5L175.5 669.5" stroke-width="2.17" stroke="rgba(244, 243, 238, 1)"></path><path d="M172.25 734.5 a3.25 3.25 0 1 0 6.5 0 a3.25 3.25 0 1 0 -6.5 0zM172.25 669.5 a3.25 3.25 0 1 0 6.5 0 a3.25 3.25 0 1 0 -6.5 0z" fill="rgba(244, 243, 238, 1)"></path><path d="M331.5 864.5L292.5 825.5L292.5 721.5L305.5 708.5" stroke-width="2.17" stroke="rgba(244, 243, 238, 1)"></path><path d="M328.25 864.5 a3.25 3.25 0 1 0 6.5 0 a3.25 3.25 0 1 0 -6.5 0zM302.25 708.5 a3.25 3.25 0 1 0 6.5 0 a3.25 3.25 0 1 0 -6.5 0z" fill="rgba(244, 243, 238, 1)"></path><path d="M71.5 838.5L71.5 812.5L6.5 747.5" stroke-width="2.17" stroke="rgba(244, 243, 238, 1)"></path><path d="M68.25 838.5 a3.25 3.25 0 1 0 6.5 0 a3.25 3.25 0 1 0 -6.5 0zM3.25 747.5 a3.25 3.25 0 1 0 6.5 0 a3.25 3.25 0 1 0 -6.5 0z" fill="rgba(244, 243, 238, 1)"></path><path d="M344.5 838.5L357.5 825.5L357.5 760.5L344.5 747.5L305.5 747.5" stroke-width="2.17" stroke="rgba(244, 243, 238, 1)"></path><path d="M341.25 838.5 a3.25 3.25 0 1 0 6.5 0 a3.25 3.25 0 1 0 -6.5 0zM302.25 747.5 a3.25 3.25 0 1 0 6.5 0 a3.25 3.25 0 1 0 -6.5 0z" fill="rgba(244, 243, 238, 1)"></path><path d="M175.5 435.5L162.5 435.5L149.5 448.5" stroke-width="2.17" stroke="rgba(244, 243, 238, 1)"></path><path d="M172.25 435.5 a3.25 3.25 0 1 0 6.5 0 a3.25 3.25 0 1 0 -6.5 0zM146.25 448.5 a3.25 3.25 0 1 0 6.5 0 a3.25 3.25 0 1 0 -6.5 0z" fill="rgba(244, 243, 238, 1)"></path><path d="M45.5 604.5L110.5 669.5" stroke-width="2.17" stroke="rgba(244, 243, 238, 1)"></path><path d="M42.25 604.5 a3.25 3.25 0 1 0 6.5 0 a3.25 3.25 0 1 0 -6.5 0zM107.25 669.5 a3.25 3.25 0 1 0 6.5 0 a3.25 3.25 0 1 0 -6.5 0z" fill="rgba(244, 243, 238, 1)"></path><path d="M266.5 435.5L266.5 409.5L279.5 396.5L279.5 344.5" stroke-width="2.17" stroke="rgba(244, 243, 238, 1)"></path><path d="M263.25 435.5 a3.25 3.25 0 1 0 6.5 0 a3.25 3.25 0 1 0 -6.5 0zM276.25 344.5 a3.25 3.25 0 1 0 6.5 0 a3.25 3.25 0 1 0 -6.5 0z" fill="rgba(244, 243, 238, 1)"></path><path d="M136.5 500.5L71.5 565.5L71.5 578.5L136.5 643.5" stroke-width="2.17" stroke="rgba(244, 243, 238, 1)"></path><path d="M133.25 500.5 a3.25 3.25 0 1 0 6.5 0 a3.25 3.25 0 1 0 -6.5 0zM133.25 643.5 a3.25 3.25 0 1 0 6.5 0 a3.25 3.25 0 1 0 -6.5 0z" fill="rgba(244, 243, 238, 1)"></path><path d="M305.5 383.5L331.5 357.5L344.5 357.5" stroke-width="2.17" stroke="rgba(244, 243, 238, 1)"></path><path d="M302.25 383.5 a3.25 3.25 0 1 0 6.5 0 a3.25 3.25 0 1 0 -6.5 0zM341.25 357.5 a3.25 3.25 0 1 0 6.5 0 a3.25 3.25 0 1 0 -6.5 0z" fill="rgba(244, 243, 238, 1)"></path><path d="M279.5 123.5L279.5 71.5" stroke-width="2.17" stroke="rgba(244, 243, 238, 1)"></path><path d="M276.25 123.5 a3.25 3.25 0 1 0 6.5 0 a3.25 3.25 0 1 0 -6.5 0zM276.25 71.5 a3.25 3.25 0 1 0 6.5 0 a3.25 3.25 0 1 0 -6.5 0z" fill="rgba(244, 243, 238, 1)"></path><path d="M331.5 422.5L318.5 409.5L318.5 383.5L331.5 370.5L344.5 370.5" stroke-width="2.17" stroke="rgba(244, 243, 238, 1)"></path><path d="M328.25 422.5 a3.25 3.25 0 1 0 6.5 0 a3.25 3.25 0 1 0 -6.5 0zM341.25 370.5 a3.25 3.25 0 1 0 6.5 0 a3.25 3.25 0 1 0 -6.5 0z" fill="rgba(244, 243, 238, 1)"></path><path d="M175.5 474.5L136.5 474.5L58.5 552.5L58.5 565.5" stroke-width="2.17" stroke="rgba(244, 243, 238, 1)"></path><path d="M172.25 474.5 a3.25 3.25 0 1 0 6.5 0 a3.25 3.25 0 1 0 -6.5 0zM55.25 565.5 a3.25 3.25 0 1 0 6.5 0 a3.25 3.25 0 1 0 -6.5 0z" fill="rgba(244, 243, 238, 1)"></path><path d="M201.5 240.5L149.5 240.5" stroke-width="2.17" stroke="rgba(244, 243, 238, 1)"></path><path d="M198.25 240.5 a3.25 3.25 0 1 0 6.5 0 a3.25 3.25 0 1 0 -6.5 0zM146.25 240.5 a3.25 3.25 0 1 0 6.5 0 a3.25 3.25 0 1 0 -6.5 0z" fill="rgba(244, 243, 238, 1)"></path><path d="M279.5 188.5L292.5 201.5L292.5 214.5L279.5 227.5" stroke-width="2.17" stroke="rgba(244, 243, 238, 1)"></path><path d="M276.25 188.5 a3.25 3.25 0 1 0 6.5 0 a3.25 3.25 0 1 0 -6.5 0zM276.25 227.5 a3.25 3.25 0 1 0 6.5 0 a3.25 3.25 0 1 0 -6.5 0z" fill="rgba(244, 243, 238, 1)"></path><path d="M97.5 214.5L84.5 227.5L84.5 240.5" stroke-width="2.17" stroke="rgba(244, 243, 238, 1)"></path><path d="M94.25 214.5 a3.25 3.25 0 1 0 6.5 0 a3.25 3.25 0 1 0 -6.5 0zM81.25 240.5 a3.25 3.25 0 1 0 6.5 0 a3.25 3.25 0 1 0 -6.5 0z" fill="rgba(244, 243, 238, 1)"></path><path d="M84.5 305.5L58.5 305.5" stroke-width="2.17" stroke="rgba(244, 243, 238, 1)"></path><path d="M81.25 305.5 a3.25 3.25 0 1 0 6.5 0 a3.25 3.25 0 1 0 -6.5 0zM55.25 305.5 a3.25 3.25 0 1 0 6.5 0 a3.25 3.25 0 1 0 -6.5 0z" fill="rgba(244, 243, 238, 1)"></path><path d="M214.5 396.5L240.5 396.5" stroke-width="2.17" stroke="rgba(244, 243, 238, 1)"></path><path d="M211.25 396.5 a3.25 3.25 0 1 0 6.5 0 a3.25 3.25 0 1 0 -6.5 0zM237.25 396.5 a3.25 3.25 0 1 0 6.5 0 a3.25 3.25 0 1 0 -6.5 0z" fill="rgba(244, 243, 238, 1)"></path><path d="M71.5 656.5L32.5 695.5L19.5 695.5" stroke-width="2.17" stroke="rgba(244, 243, 238, 1)"></path><path d="M68.25 656.5 a3.25 3.25 0 1 0 6.5 0 a3.25 3.25 0 1 0 -6.5 0zM16.25 695.5 a3.25 3.25 0 1 0 6.5 0 a3.25 3.25 0 1 0 -6.5 0z" fill="rgba(244, 243, 238, 1)"></path><path d="M201.5 500.5L188.5 487.5L136.5 487.5" stroke-width="2.17" stroke="rgba(244, 243, 238, 1)"></path><path d="M198.25 500.5 a3.25 3.25 0 1 0 6.5 0 a3.25 3.25 0 1 0 -6.5 0zM133.25 487.5 a3.25 3.25 0 1 0 6.5 0 a3.25 3.25 0 1 0 -6.5 0z" fill="rgba(244, 243, 238, 1)"></path><path d="M344.5 227.5L383.5 227.5" stroke-width="2.17" stroke="rgba(244, 243, 238, 1)"></path><path d="M341.25 227.5 a3.25 3.25 0 1 0 6.5 0 a3.25 3.25 0 1 0 -6.5 0zM380.25 227.5 a3.25 3.25 0 1 0 6.5 0 a3.25 3.25 0 1 0 -6.5 0z" fill="rgba(244, 243, 238, 1)"></path><path d="M318.5 175.5L318.5 188.5L305.5 201.5" stroke-width="2.17" stroke="rgba(244, 243, 238, 1)"></path><path d="M315.25 175.5 a3.25 3.25 0 1 0 6.5 0 a3.25 3.25 0 1 0 -6.5 0zM302.25 201.5 a3.25 3.25 0 1 0 6.5 0 a3.25 3.25 0 1 0 -6.5 0z" fill="rgba(244, 243, 238, 1)"></path><path d="M175.5 760.5L201.5 760.5L240.5 721.5L266.5 721.5" stroke-width="2.17" stroke="rgba(244, 243, 238, 1)"></path><path d="M172.25 760.5 a3.25 3.25 0 1 0 6.5 0 a3.25 3.25 0 1 0 -6.5 0zM263.25 721.5 a3.25 3.25 0 1 0 6.5 0 a3.25 3.25 0 1 0 -6.5 0z" fill="rgba(244, 243, 238, 1)"></path><path d="M266.5 539.5L279.5 526.5L318.5 526.5" stroke-width="2.17" stroke="rgba(244, 243, 238, 1)"></path><path d="M263.25 539.5 a3.25 3.25 0 1 0 6.5 0 a3.25 3.25 0 1 0 -6.5 0zM315.25 526.5 a3.25 3.25 0 1 0 6.5 0 a3.25 3.25 0 1 0 -6.5 0z" fill="rgba(244, 243, 238, 1)"></path><path d="M240.5 838.5L240.5 851.5L253.5 864.5" stroke-width="2.17" stroke="rgba(244, 243, 238, 1)"></path><path d="M237.25 838.5 a3.25 3.25 0 1 0 6.5 0 a3.25 3.25 0 1 0 -6.5 0zM250.25 864.5 a3.25 3.25 0 1 0 6.5 0 a3.25 3.25 0 1 0 -6.5 0z" fill="rgba(244, 243, 238, 1)"></path><path d="M396.5 474.5L396.5 539.5L383.5 552.5L383.5 604.5" stroke-width="2.17" stroke="rgba(244, 243, 238, 1)"></path><path d="M393.25 474.5 a3.25 3.25 0 1 0 6.5 0 a3.25 3.25 0 1 0 -6.5 0zM380.25 604.5 a3.25 3.25 0 1 0 6.5 0 a3.25 3.25 0 1 0 -6.5 0z" fill="rgba(244, 243, 238, 1)"></path><path d="M266.5 695.5L253.5 682.5L253.5 669.5" stroke-width="2.17" stroke="rgba(244, 243, 238, 1)"></path><path d="M263.25 695.5 a3.25 3.25 0 1 0 6.5 0 a3.25 3.25 0 1 0 -6.5 0zM250.25 669.5 a3.25 3.25 0 1 0 6.5 0 a3.25 3.25 0 1 0 -6.5 0z" fill="rgba(244, 243, 238, 1)"></path><path d="M357.5 97.5L383.5 123.5" stroke-width="2.17" stroke="rgba(244, 243, 238, 1)"></path><path d="M354.25 97.5 a3.25 3.25 0 1 0 6.5 0 a3.25 3.25 0 1 0 -6.5 0zM380.25 123.5 a3.25 3.25 0 1 0 6.5 0 a3.25 3.25 0 1 0 -6.5 0z" fill="rgba(244, 243, 238, 1)"></path><path d="M383.5 149.5L370.5 162.5L357.5 162.5L344.5 149.5" stroke-width="2.17" stroke="rgba(244, 243, 238, 1)"></path><path d="M380.25 149.5 a3.25 3.25 0 1 0 6.5 0 a3.25 3.25 0 1 0 -6.5 0zM341.25 149.5 a3.25 3.25 0 1 0 6.5 0 a3.25 3.25 0 1 0 -6.5 0z" fill="rgba(244, 243, 238, 1)"></path><path d="M344.5 864.5L318.5 838.5L318.5 812.5L344.5 786.5L344.5 760.5" stroke-width="2.17" stroke="rgba(244, 243, 238, 1)"></path><path d="M341.25 864.5 a3.25 3.25 0 1 0 6.5 0 a3.25 3.25 0 1 0 -6.5 0zM341.25 760.5 a3.25 3.25 0 1 0 6.5 0 a3.25 3.25 0 1 0 -6.5 0z" fill="rgba(244, 243, 238, 1)"></path><path d="M344.5 643.5L357.5 656.5L370.5 656.5" stroke-width="2.17" stroke="rgba(244, 243, 238, 1)"></path><path d="M341.25 643.5 a3.25 3.25 0 1 0 6.5 0 a3.25 3.25 0 1 0 -6.5 0zM367.25 656.5 a3.25 3.25 0 1 0 6.5 0 a3.25 3.25 0 1 0 -6.5 0z" fill="rgba(244, 243, 238, 1)"></path><path d="M19.5 591.5L32.5 578.5L32.5 565.5L19.5 552.5" stroke-width="2.17" stroke="rgba(244, 243, 238, 1)"></path><path d="M16.25 591.5 a3.25 3.25 0 1 0 6.5 0 a3.25 3.25 0 1 0 -6.5 0zM16.25 552.5 a3.25 3.25 0 1 0 6.5 0 a3.25 3.25 0 1 0 -6.5 0z" fill="rgba(244, 243, 238, 1)"></path><path d="M32.5 214.5L32.5 188.5L45.5 175.5L58.5 175.5" stroke-width="2.17" stroke="rgba(244, 243, 238, 1)"></path><path d="M29.25 214.5 a3.25 3.25 0 1 0 6.5 0 a3.25 3.25 0 1 0 -6.5 0zM55.25 175.5 a3.25 3.25 0 1 0 6.5 0 a3.25 3.25 0 1 0 -6.5 0z" fill="rgba(244, 243, 238, 1)"></path><path d="M136.5 318.5L175.5 318.5" stroke-width="2.17" stroke="rgba(244, 243, 238, 1)"></path><path d="M133.25 318.5 a3.25 3.25 0 1 0 6.5 0 a3.25 3.25 0 1 0 -6.5 0zM172.25 318.5 a3.25 3.25 0 1 0 6.5 0 a3.25 3.25 0 1 0 -6.5 0z" fill="rgba(244, 243, 238, 1)"></path><path d="M396.5 838.5L383.5 851.5L383.5 864.5L409.5 890.5" stroke-width="2.17" stroke="rgba(244, 243, 238, 1)"></path><path d="M393.25 838.5 a3.25 3.25 0 1 0 6.5 0 a3.25 3.25 0 1 0 -6.5 0zM406.25 890.5 a3.25 3.25 0 1 0 6.5 0 a3.25 3.25 0 1 0 -6.5 0z" fill="rgba(244, 243, 238, 1)"></path><path d="M370.5 630.5L331.5 630.5L318.5 617.5L318.5 565.5" stroke-width="2.17" stroke="rgba(244, 243, 238, 1)"></path><path d="M367.25 630.5 a3.25 3.25 0 1 0 6.5 0 a3.25 3.25 0 1 0 -6.5 0zM315.25 565.5 a3.25 3.25 0 1 0 6.5 0 a3.25 3.25 0 1 0 -6.5 0z" fill="rgba(244, 243, 238, 1)"></path><path d="M19.5 877.5L19.5 851.5L58.5 812.5" stroke-width="2.17" stroke="rgba(244, 243, 238, 1)"></path><path d="M16.25 877.5 a3.25 3.25 0 1 0 6.5 0 a3.25 3.25 0 1 0 -6.5 0zM55.25 812.5 a3.25 3.25 0 1 0 6.5 0 a3.25 3.25 0 1 0 -6.5 0z" fill="rgba(244, 243, 238, 1)"></path><path d="M331.5 669.5L331.5 695.5L344.5 708.5L370.5 708.5" stroke-width="2.17" stroke="rgba(244, 243, 238, 1)"></path><path d="M328.25 669.5 a3.25 3.25 0 1 0 6.5 0 a3.25 3.25 0 1 0 -6.5 0zM367.25 708.5 a3.25 3.25 0 1 0 6.5 0 a3.25 3.25 0 1 0 -6.5 0z" fill="rgba(244, 243, 238, 1)"></path><path d="M97.5 773.5L149.5 773.5" stroke-width="2.17" stroke="rgba(244, 243, 238, 1)"></path><path d="M94.25 773.5 a3.25 3.25 0 1 0 6.5 0 a3.25 3.25 0 1 0 -6.5 0zM146.25 773.5 a3.25 3.25 0 1 0 6.5 0 a3.25 3.25 0 1 0 -6.5 0z" fill="rgba(244, 243, 238, 1)"></path><path d="M58.5 318.5L110.5 318.5" stroke-width="2.17" stroke="rgba(244, 243, 238, 1)"></path><path d="M55.25 318.5 a3.25 3.25 0 1 0 6.5 0 a3.25 3.25 0 1 0 -6.5 0zM107.25 318.5 a3.25 3.25 0 1 0 6.5 0 a3.25 3.25 0 1 0 -6.5 0z" fill="rgba(244, 243, 238, 1)"></path><path d="M45.5 123.5L45.5 6.5" stroke-width="2.17" stroke="rgba(244, 243, 238, 1)"></path><path d="M42.25 123.5 a3.25 3.25 0 1 0 6.5 0 a3.25 3.25 0 1 0 -6.5 0zM42.25 6.5 a3.25 3.25 0 1 0 6.5 0 a3.25 3.25 0 1 0 -6.5 0z" fill="rgba(244, 243, 238, 1)"></path><path d="M227.5 422.5L214.5 409.5L201.5 409.5" stroke-width="2.17" stroke="rgba(244, 243, 238, 1)"></path><path d="M224.25 422.5 a3.25 3.25 0 1 0 6.5 0 a3.25 3.25 0 1 0 -6.5 0zM198.25 409.5 a3.25 3.25 0 1 0 6.5 0 a3.25 3.25 0 1 0 -6.5 0z" fill="rgba(244, 243, 238, 1)"></path><path d="M214.5 136.5L201.5 123.5L188.5 123.5L149.5 162.5L149.5 188.5" stroke-width="2.17" stroke="rgba(244, 243, 238, 1)"></path><path d="M211.25 136.5 a3.25 3.25 0 1 0 6.5 0 a3.25 3.25 0 1 0 -6.5 0zM146.25 188.5 a3.25 3.25 0 1 0 6.5 0 a3.25 3.25 0 1 0 -6.5 0z" fill="rgba(244, 243, 238, 1)"></path><path d="M188.5 149.5L175.5 162.5L175.5 175.5" stroke-width="2.17" stroke="rgba(244, 243, 238, 1)"></path><path d="M185.25 149.5 a3.25 3.25 0 1 0 6.5 0 a3.25 3.25 0 1 0 -6.5 0zM172.25 175.5 a3.25 3.25 0 1 0 6.5 0 a3.25 3.25 0 1 0 -6.5 0z" fill="rgba(244, 243, 238, 1)"></path><path d="M97.5 32.5L162.5 97.5L175.5 97.5L188.5 84.5" stroke-width="2.17" stroke="rgba(244, 243, 238, 1)"></path><path d="M94.25 32.5 a3.25 3.25 0 1 0 6.5 0 a3.25 3.25 0 1 0 -6.5 0zM185.25 84.5 a3.25 3.25 0 1 0 6.5 0 a3.25 3.25 0 1 0 -6.5 0z" fill="rgba(244, 243, 238, 1)"></path><path d="M58.5 97.5L84.5 71.5L110.5 71.5" stroke-width="2.17" stroke="rgba(244, 243, 238, 1)"></path><path d="M55.25 97.5 a3.25 3.25 0 1 0 6.5 0 a3.25 3.25 0 1 0 -6.5 0zM107.25 71.5 a3.25 3.25 0 1 0 6.5 0 a3.25 3.25 0 1 0 -6.5 0z" fill="rgba(244, 243, 238, 1)"></path><path d="M357.5 877.5L357.5 838.5" stroke-width="2.17" stroke="rgba(244, 243, 238, 1)"></path><path d="M354.25 877.5 a3.25 3.25 0 1 0 6.5 0 a3.25 3.25 0 1 0 -6.5 0zM354.25 838.5 a3.25 3.25 0 1 0 6.5 0 a3.25 3.25 0 1 0 -6.5 0z" fill="rgba(244, 243, 238, 1)"></path><path d="M136.5 539.5L162.5 539.5" stroke-width="2.17" stroke="rgba(244, 243, 238, 1)"></path><path d="M133.25 539.5 a3.25 3.25 0 1 0 6.5 0 a3.25 3.25 0 1 0 -6.5 0zM159.25 539.5 a3.25 3.25 0 1 0 6.5 0 a3.25 3.25 0 1 0 -6.5 0z" fill="rgba(244, 243, 238, 1)"></path><path d="M188.5 513.5L175.5 500.5L149.5 500.5L84.5 565.5L84.5 578.5L136.5 630.5" stroke-width="2.17" stroke="rgba(244, 243, 238, 1)"></path><path d="M185.25 513.5 a3.25 3.25 0 1 0 6.5 0 a3.25 3.25 0 1 0 -6.5 0zM133.25 630.5 a3.25 3.25 0 1 0 6.5 0 a3.25 3.25 0 1 0 -6.5 0z" fill="rgba(244, 243, 238, 1)"></path><path d="M6.5 760.5L45.5 799.5L45.5 812.5" stroke-width="2.17" stroke="rgba(244, 243, 238, 1)"></path><path d="M3.25 760.5 a3.25 3.25 0 1 0 6.5 0 a3.25 3.25 0 1 0 -6.5 0zM42.25 812.5 a3.25 3.25 0 1 0 6.5 0 a3.25 3.25 0 1 0 -6.5 0z" fill="rgba(244, 243, 238, 1)"></path><path d="M84.5 708.5L110.5 708.5L136.5 734.5L136.5 760.5" stroke-width="2.17" stroke="rgba(244, 243, 238, 1)"></path><path d="M81.25 708.5 a3.25 3.25 0 1 0 6.5 0 a3.25 3.25 0 1 0 -6.5 0zM133.25 760.5 a3.25 3.25 0 1 0 6.5 0 a3.25 3.25 0 1 0 -6.5 0z" fill="rgba(244, 243, 238, 1)"></path><path d="M19.5 357.5L6.5 370.5L6.5 409.5" stroke-width="2.17" stroke="rgba(244, 243, 238, 1)"></path><path d="M16.25 357.5 a3.25 3.25 0 1 0 6.5 0 a3.25 3.25 0 1 0 -6.5 0zM3.25 409.5 a3.25 3.25 0 1 0 6.5 0 a3.25 3.25 0 1 0 -6.5 0z" fill="rgba(244, 243, 238, 1)"></path><path d="M84.5 357.5L110.5 357.5L123.5 344.5" stroke-width="2.17" stroke="rgba(244, 243, 238, 1)"></path><path d="M81.25 357.5 a3.25 3.25 0 1 0 6.5 0 a3.25 3.25 0 1 0 -6.5 0zM120.25 344.5 a3.25 3.25 0 1 0 6.5 0 a3.25 3.25 0 1 0 -6.5 0z" fill="rgba(244, 243, 238, 1)"></path><path d="M383.5 58.5L357.5 58.5L305.5 6.5L227.5 6.5L201.5 32.5L175.5 32.5" stroke-width="2.17" stroke="rgba(244, 243, 238, 1)"></path><path d="M380.25 58.5 a3.25 3.25 0 1 0 6.5 0 a3.25 3.25 0 1 0 -6.5 0zM172.25 32.5 a3.25 3.25 0 1 0 6.5 0 a3.25 3.25 0 1 0 -6.5 0z" fill="rgba(244, 243, 238, 1)"></path><path d="M149.5 292.5L162.5 305.5L175.5 305.5L201.5 279.5L201.5 266.5" stroke-width="2.17" stroke="rgba(244, 243, 238, 1)"></path><path d="M146.25 292.5 a3.25 3.25 0 1 0 6.5 0 a3.25 3.25 0 1 0 -6.5 0zM198.25 266.5 a3.25 3.25 0 1 0 6.5 0 a3.25 3.25 0 1 0 -6.5 0z" fill="rgba(244, 243, 238, 1)"></path><path d="M227.5 318.5L227.5 292.5" stroke-width="2.17" stroke="rgba(244, 243, 238, 1)"></path><path d="M224.25 318.5 a3.25 3.25 0 1 0 6.5 0 a3.25 3.25 0 1 0 -6.5 0zM224.25 292.5 a3.25 3.25 0 1 0 6.5 0 a3.25 3.25 0 1 0 -6.5 0z" fill="rgba(244, 243, 238, 1)"></path><path d="M84.5 110.5L58.5 110.5" stroke-width="2.17" stroke="rgba(244, 243, 238, 1)"></path><path d="M81.25 110.5 a3.25 3.25 0 1 0 6.5 0 a3.25 3.25 0 1 0 -6.5 0zM55.25 110.5 a3.25 3.25 0 1 0 6.5 0 a3.25 3.25 0 1 0 -6.5 0z" fill="rgba(244, 243, 238, 1)"></path><path d="M110.5 188.5L110.5 97.5L97.5 84.5L84.5 84.5L71.5 97.5" stroke-width="2.17" stroke="rgba(244, 243, 238, 1)"></path><path d="M107.25 188.5 a3.25 3.25 0 1 0 6.5 0 a3.25 3.25 0 1 0 -6.5 0zM68.25 97.5 a3.25 3.25 0 1 0 6.5 0 a3.25 3.25 0 1 0 -6.5 0z" fill="rgba(244, 243, 238, 1)"></path><path d="M32.5 851.5L32.5 877.5" stroke-width="2.17" stroke="rgba(244, 243, 238, 1)"></path><path d="M29.25 851.5 a3.25 3.25 0 1 0 6.5 0 a3.25 3.25 0 1 0 -6.5 0zM29.25 877.5 a3.25 3.25 0 1 0 6.5 0 a3.25 3.25 0 1 0 -6.5 0z" fill="rgba(244, 243, 238, 1)"></path><path d="M19.5 630.5L19.5 617.5L45.5 591.5L58.5 591.5L110.5 643.5L110.5 656.5" stroke-width="2.17" stroke="rgba(244, 243, 238, 1)"></path><path d="M16.25 630.5 a3.25 3.25 0 1 0 6.5 0 a3.25 3.25 0 1 0 -6.5 0zM107.25 656.5 a3.25 3.25 0 1 0 6.5 0 a3.25 3.25 0 1 0 -6.5 0z" fill="rgba(244, 243, 238, 1)"></path><path d="M344.5 19.5L370.5 45.5L383.5 45.5" stroke-width="2.17" stroke="rgba(244, 243, 238, 1)"></path><path d="M341.25 19.5 a3.25 3.25 0 1 0 6.5 0 a3.25 3.25 0 1 0 -6.5 0zM380.25 45.5 a3.25 3.25 0 1 0 6.5 0 a3.25 3.25 0 1 0 -6.5 0z" fill="rgba(244, 243, 238, 1)"></path><path d="M201.5 695.5L201.5 682.5L188.5 669.5" stroke-width="2.17" stroke="rgba(244, 243, 238, 1)"></path><path d="M198.25 695.5 a3.25 3.25 0 1 0 6.5 0 a3.25 3.25 0 1 0 -6.5 0zM185.25 669.5 a3.25 3.25 0 1 0 6.5 0 a3.25 3.25 0 1 0 -6.5 0z" fill="rgba(244, 243, 238, 1)"></path><path d="M370.5 188.5L370.5 175.5L383.5 162.5" stroke-width="2.17" stroke="rgba(244, 243, 238, 1)"></path><path d="M367.25 188.5 a3.25 3.25 0 1 0 6.5 0 a3.25 3.25 0 1 0 -6.5 0zM380.25 162.5 a3.25 3.25 0 1 0 6.5 0 a3.25 3.25 0 1 0 -6.5 0z" fill="rgba(244, 243, 238, 1)"></path><path d="M188.5 747.5L201.5 747.5L240.5 708.5" stroke-width="2.17" stroke="rgba(244, 243, 238, 1)"></path><path d="M185.25 747.5 a3.25 3.25 0 1 0 6.5 0 a3.25 3.25 0 1 0 -6.5 0zM237.25 708.5 a3.25 3.25 0 1 0 6.5 0 a3.25 3.25 0 1 0 -6.5 0z" fill="rgba(244, 243, 238, 1)"></path><path d="M409.5 643.5L409.5 695.5" stroke-width="2.17" stroke="rgba(244, 243, 238, 1)"></path><path d="M406.25 643.5 a3.25 3.25 0 1 0 6.5 0 a3.25 3.25 0 1 0 -6.5 0zM406.25 695.5 a3.25 3.25 0 1 0 6.5 0 a3.25 3.25 0 1 0 -6.5 0z" fill="rgba(244, 243, 238, 1)"></path><path d="M305.5 318.5L318.5 331.5L318.5 344.5" stroke-width="2.17" stroke="rgba(244, 243, 238, 1)"></path><path d="M302.25 318.5 a3.25 3.25 0 1 0 6.5 0 a3.25 3.25 0 1 0 -6.5 0zM315.25 344.5 a3.25 3.25 0 1 0 6.5 0 a3.25 3.25 0 1 0 -6.5 0z" fill="rgba(244, 243, 238, 1)"></path><path d="M227.5 669.5L227.5 643.5" stroke-width="2.17" stroke="rgba(244, 243, 238, 1)"></path><path d="M224.25 669.5 a3.25 3.25 0 1 0 6.5 0 a3.25 3.25 0 1 0 -6.5 0zM224.25 643.5 a3.25 3.25 0 1 0 6.5 0 a3.25 3.25 0 1 0 -6.5 0z" fill="rgba(244, 243, 238, 1)"></path><path d="M331.5 890.5L331.5 877.5L292.5 838.5" stroke-width="2.17" stroke="rgba(244, 243, 238, 1)"></path><path d="M328.25 890.5 a3.25 3.25 0 1 0 6.5 0 a3.25 3.25 0 1 0 -6.5 0zM289.25 838.5 a3.25 3.25 0 1 0 6.5 0 a3.25 3.25 0 1 0 -6.5 0z" fill="rgba(244, 243, 238, 1)"></path><path d="M19.5 318.5L19.5 344.5L32.5 357.5L32.5 448.5L19.5 461.5" stroke-width="2.17" stroke="rgba(244, 243, 238, 1)"></path><path d="M16.25 318.5 a3.25 3.25 0 1 0 6.5 0 a3.25 3.25 0 1 0 -6.5 0zM16.25 461.5 a3.25 3.25 0 1 0 6.5 0 a3.25 3.25 0 1 0 -6.5 0z" fill="rgba(244, 243, 238, 1)"></path><path d="M58.5 643.5L19.5 643.5" stroke-width="2.17" stroke="rgba(244, 243, 238, 1)"></path><path d="M55.25 643.5 a3.25 3.25 0 1 0 6.5 0 a3.25 3.25 0 1 0 -6.5 0zM16.25 643.5 a3.25 3.25 0 1 0 6.5 0 a3.25 3.25 0 1 0 -6.5 0z" fill="rgba(244, 243, 238, 1)"></path><path d="M201.5 227.5L214.5 240.5L240.5 240.5" stroke-width="2.17" stroke="rgba(244, 243, 238, 1)"></path><path d="M198.25 227.5 a3.25 3.25 0 1 0 6.5 0 a3.25 3.25 0 1 0 -6.5 0zM237.25 240.5 a3.25 3.25 0 1 0 6.5 0 a3.25 3.25 0 1 0 -6.5 0z" fill="rgba(244, 243, 238, 1)"></path><path d="M97.5 162.5L84.5 162.5L71.5 149.5L71.5 123.5" stroke-width="2.17" stroke="rgba(244, 243, 238, 1)"></path><path d="M94.25 162.5 a3.25 3.25 0 1 0 6.5 0 a3.25 3.25 0 1 0 -6.5 0zM68.25 123.5 a3.25 3.25 0 1 0 6.5 0 a3.25 3.25 0 1 0 -6.5 0z" fill="rgba(244, 243, 238, 1)"></path><path d="M123.5 227.5L97.5 253.5" stroke-width="2.17" stroke="rgba(244, 243, 238, 1)"></path><path d="M120.25 227.5 a3.25 3.25 0 1 0 6.5 0 a3.25 3.25 0 1 0 -6.5 0zM94.25 253.5 a3.25 3.25 0 1 0 6.5 0 a3.25 3.25 0 1 0 -6.5 0z" fill="rgba(244, 243, 238, 1)"></path><path d="M188.5 435.5L227.5 474.5L227.5 487.5L214.5 500.5" stroke-width="2.17" stroke="rgba(244, 243, 238, 1)"></path><path d="M185.25 435.5 a3.25 3.25 0 1 0 6.5 0 a3.25 3.25 0 1 0 -6.5 0zM211.25 500.5 a3.25 3.25 0 1 0 6.5 0 a3.25 3.25 0 1 0 -6.5 0z" fill="rgba(244, 243, 238, 1)"></path><path d="M175.5 357.5L149.5 331.5" stroke-width="2.17" stroke="rgba(244, 243, 238, 1)"></path><path d="M172.25 357.5 a3.25 3.25 0 1 0 6.5 0 a3.25 3.25 0 1 0 -6.5 0zM146.25 331.5 a3.25 3.25 0 1 0 6.5 0 a3.25 3.25 0 1 0 -6.5 0z" fill="rgba(244, 243, 238, 1)"></path><path d="M19.5 162.5L19.5 123.5" stroke-width="2.17" stroke="rgba(244, 243, 238, 1)"></path><path d="M16.25 162.5 a3.25 3.25 0 1 0 6.5 0 a3.25 3.25 0 1 0 -6.5 0zM16.25 123.5 a3.25 3.25 0 1 0 6.5 0 a3.25 3.25 0 1 0 -6.5 0z" fill="rgba(244, 243, 238, 1)"></path><path d="M357.5 214.5L383.5 214.5L396.5 201.5" stroke-width="2.17" stroke="rgba(244, 243, 238, 1)"></path><path d="M354.25 214.5 a3.25 3.25 0 1 0 6.5 0 a3.25 3.25 0 1 0 -6.5 0zM393.25 201.5 a3.25 3.25 0 1 0 6.5 0 a3.25 3.25 0 1 0 -6.5 0z" fill="rgba(244, 243, 238, 1)"></path><path d="M19.5 682.5L19.5 656.5" stroke-width="2.17" stroke="rgba(244, 243, 238, 1)"></path><path d="M16.25 682.5 a3.25 3.25 0 1 0 6.5 0 a3.25 3.25 0 1 0 -6.5 0zM16.25 656.5 a3.25 3.25 0 1 0 6.5 0 a3.25 3.25 0 1 0 -6.5 0z" fill="rgba(244, 243, 238, 1)"></path><path d="M97.5 747.5L84.5 734.5L84.5 721.5" stroke-width="2.17" stroke="rgba(244, 243, 238, 1)"></path><path d="M94.25 747.5 a3.25 3.25 0 1 0 6.5 0 a3.25 3.25 0 1 0 -6.5 0zM81.25 721.5 a3.25 3.25 0 1 0 6.5 0 a3.25 3.25 0 1 0 -6.5 0z" fill="rgba(244, 243, 238, 1)"></path><path d="M58.5 45.5L58.5 19.5" stroke-width="2.17" stroke="rgba(244, 243, 238, 1)"></path><path d="M55.25 45.5 a3.25 3.25 0 1 0 6.5 0 a3.25 3.25 0 1 0 -6.5 0zM55.25 19.5 a3.25 3.25 0 1 0 6.5 0 a3.25 3.25 0 1 0 -6.5 0z" fill="rgba(244, 243, 238, 1)"></path><path d="M279.5 19.5L240.5 19.5" stroke-width="2.17" stroke="rgba(244, 243, 238, 1)"></path><path d="M276.25 19.5 a3.25 3.25 0 1 0 6.5 0 a3.25 3.25 0 1 0 -6.5 0zM237.25 19.5 a3.25 3.25 0 1 0 6.5 0 a3.25 3.25 0 1 0 -6.5 0z" fill="rgba(244, 243, 238, 1)"></path><path d="M123.5 19.5L149.5 45.5L149.5 71.5L162.5 84.5L175.5 84.5" stroke-width="2.17" stroke="rgba(244, 243, 238, 1)"></path><path d="M120.25 19.5 a3.25 3.25 0 1 0 6.5 0 a3.25 3.25 0 1 0 -6.5 0zM172.25 84.5 a3.25 3.25 0 1 0 6.5 0 a3.25 3.25 0 1 0 -6.5 0z" fill="rgba(244, 243, 238, 1)"></path><path d="M253.5 604.5L227.5 604.5" stroke-width="2.17" stroke="rgba(244, 243, 238, 1)"></path><path d="M250.25 604.5 a3.25 3.25 0 1 0 6.5 0 a3.25 3.25 0 1 0 -6.5 0zM224.25 604.5 a3.25 3.25 0 1 0 6.5 0 a3.25 3.25 0 1 0 -6.5 0z" fill="rgba(244, 243, 238, 1)"></path><path d="M331.5 617.5L331.5 591.5" stroke-width="2.17" stroke="rgba(244, 243, 238, 1)"></path><path d="M328.25 617.5 a3.25 3.25 0 1 0 6.5 0 a3.25 3.25 0 1 0 -6.5 0zM328.25 591.5 a3.25 3.25 0 1 0 6.5 0 a3.25 3.25 0 1 0 -6.5 0z" fill="rgba(244, 243, 238, 1)"></path><path d="M383.5 240.5L331.5 292.5L318.5 292.5L292.5 266.5L292.5 240.5L305.5 227.5L331.5 227.5L357.5 253.5" stroke-width="2.17" stroke="rgba(244, 243, 238, 1)"></path><path d="M380.25 240.5 a3.25 3.25 0 1 0 6.5 0 a3.25 3.25 0 1 0 -6.5 0zM354.25 253.5 a3.25 3.25 0 1 0 6.5 0 a3.25 3.25 0 1 0 -6.5 0z" fill="rgba(244, 243, 238, 1)"></path><path d="M110.5 344.5L84.5 344.5" stroke-width="2.17" stroke="rgba(244, 243, 238, 1)"></path><path d="M107.25 344.5 a3.25 3.25 0 1 0 6.5 0 a3.25 3.25 0 1 0 -6.5 0zM81.25 344.5 a3.25 3.25 0 1 0 6.5 0 a3.25 3.25 0 1 0 -6.5 0z" fill="rgba(244, 243, 238, 1)"></path><path d="M331.5 266.5L331.5 240.5" stroke-width="2.17" stroke="rgba(244, 243, 238, 1)"></path><path d="M328.25 266.5 a3.25 3.25 0 1 0 6.5 0 a3.25 3.25 0 1 0 -6.5 0zM328.25 240.5 a3.25 3.25 0 1 0 6.5 0 a3.25 3.25 0 1 0 -6.5 0z" fill="rgba(244, 243, 238, 1)"></path><path d="M344.5 110.5L357.5 110.5L370.5 123.5" stroke-width="2.17" stroke="rgba(244, 243, 238, 1)"></path><path d="M341.25 110.5 a3.25 3.25 0 1 0 6.5 0 a3.25 3.25 0 1 0 -6.5 0zM367.25 123.5 a3.25 3.25 0 1 0 6.5 0 a3.25 3.25 0 1 0 -6.5 0z" fill="rgba(244, 243, 238, 1)"></path><path d="M175.5 604.5L162.5 617.5L136.5 617.5L97.5 578.5L97.5 565.5L123.5 539.5" stroke-width="2.17" stroke="rgba(244, 243, 238, 1)"></path><path d="M172.25 604.5 a3.25 3.25 0 1 0 6.5 0 a3.25 3.25 0 1 0 -6.5 0zM120.25 539.5 a3.25 3.25 0 1 0 6.5 0 a3.25 3.25 0 1 0 -6.5 0z" fill="rgba(244, 243, 238, 1)"></path><path d="M58.5 409.5L58.5 383.5" stroke-width="2.17" stroke="rgba(244, 243, 238, 1)"></path><path d="M55.25 409.5 a3.25 3.25 0 1 0 6.5 0 a3.25 3.25 0 1 0 -6.5 0zM55.25 383.5 a3.25 3.25 0 1 0 6.5 0 a3.25 3.25 0 1 0 -6.5 0z" fill="rgba(244, 243, 238, 1)"></path><path d="M370.5 461.5L370.5 435.5" stroke-width="2.17" stroke="rgba(244, 243, 238, 1)"></path><path d="M367.25 461.5 a3.25 3.25 0 1 0 6.5 0 a3.25 3.25 0 1 0 -6.5 0zM367.25 435.5 a3.25 3.25 0 1 0 6.5 0 a3.25 3.25 0 1 0 -6.5 0z" fill="rgba(244, 243, 238, 1)"></path><path d="M58.5 760.5L58.5 773.5L110.5 825.5" stroke-width="2.17" stroke="rgba(244, 243, 238, 1)"></path><path d="M55.25 760.5 a3.25 3.25 0 1 0 6.5 0 a3.25 3.25 0 1 0 -6.5 0zM107.25 825.5 a3.25 3.25 0 1 0 6.5 0 a3.25 3.25 0 1 0 -6.5 0z" fill="rgba(244, 243, 238, 1)"></path><path d="M318.5 253.5L318.5 279.5" stroke-width="2.17" stroke="rgba(244, 243, 238, 1)"></path><path d="M315.25 253.5 a3.25 3.25 0 1 0 6.5 0 a3.25 3.25 0 1 0 -6.5 0zM315.25 279.5 a3.25 3.25 0 1 0 6.5 0 a3.25 3.25 0 1 0 -6.5 0z" fill="rgba(244, 243, 238, 1)"></path><path d="M383.5 175.5L383.5 201.5" stroke-width="2.17" stroke="rgba(244, 243, 238, 1)"></path><path d="M380.25 175.5 a3.25 3.25 0 1 0 6.5 0 a3.25 3.25 0 1 0 -6.5 0zM380.25 201.5 a3.25 3.25 0 1 0 6.5 0 a3.25 3.25 0 1 0 -6.5 0z" fill="rgba(244, 243, 238, 1)"></path><path d="M240.5 526.5L266.5 526.5" stroke-width="2.17" stroke="rgba(244, 243, 238, 1)"></path><path d="M237.25 526.5 a3.25 3.25 0 1 0 6.5 0 a3.25 3.25 0 1 0 -6.5 0zM263.25 526.5 a3.25 3.25 0 1 0 6.5 0 a3.25 3.25 0 1 0 -6.5 0z" fill="rgba(244, 243, 238, 1)"></path><path d="M32.5 656.5L58.5 656.5" stroke-width="2.17" stroke="rgba(244, 243, 238, 1)"></path><path d="M29.25 656.5 a3.25 3.25 0 1 0 6.5 0 a3.25 3.25 0 1 0 -6.5 0zM55.25 656.5 a3.25 3.25 0 1 0 6.5 0 a3.25 3.25 0 1 0 -6.5 0z" fill="rgba(244, 243, 238, 1)"></path><path d="M32.5 266.5L19.5 279.5L19.5 292.5" stroke-width="2.17" stroke="rgba(244, 243, 238, 1)"></path><path d="M29.25 266.5 a3.25 3.25 0 1 0 6.5 0 a3.25 3.25 0 1 0 -6.5 0zM16.25 292.5 a3.25 3.25 0 1 0 6.5 0 a3.25 3.25 0 1 0 -6.5 0z" fill="rgba(244, 243, 238, 1)"></path><path d="M214.5 851.5L227.5 864.5L227.5 877.5" stroke-width="2.17" stroke="rgba(244, 243, 238, 1)"></path><path d="M211.25 851.5 a3.25 3.25 0 1 0 6.5 0 a3.25 3.25 0 1 0 -6.5 0zM224.25 877.5 a3.25 3.25 0 1 0 6.5 0 a3.25 3.25 0 1 0 -6.5 0z" fill="rgba(244, 243, 238, 1)"></path><path d="M71.5 695.5L123.5 695.5L136.5 708.5L136.5 721.5" stroke-width="2.17" stroke="rgba(244, 243, 238, 1)"></path><path d="M68.25 695.5 a3.25 3.25 0 1 0 6.5 0 a3.25 3.25 0 1 0 -6.5 0zM133.25 721.5 a3.25 3.25 0 1 0 6.5 0 a3.25 3.25 0 1 0 -6.5 0z" fill="rgba(244, 243, 238, 1)"></path><path d="M84.5 851.5L97.5 864.5L97.5 877.5" stroke-width="2.17" stroke="rgba(244, 243, 238, 1)"></path><path d="M81.25 851.5 a3.25 3.25 0 1 0 6.5 0 a3.25 3.25 0 1 0 -6.5 0zM94.25 877.5 a3.25 3.25 0 1 0 6.5 0 a3.25 3.25 0 1 0 -6.5 0z" fill="rgba(244, 243, 238, 1)"></path><path d="M318.5 890.5L318.5 877.5L292.5 851.5" stroke-width="2.17" stroke="rgba(244, 243, 238, 1)"></path><path d="M315.25 890.5 a3.25 3.25 0 1 0 6.5 0 a3.25 3.25 0 1 0 -6.5 0zM289.25 851.5 a3.25 3.25 0 1 0 6.5 0 a3.25 3.25 0 1 0 -6.5 0z" fill="rgba(244, 243, 238, 1)"></path><path d="M292.5 474.5L266.5 500.5L253.5 500.5" stroke-width="2.17" stroke="rgba(244, 243, 238, 1)"></path><path d="M289.25 474.5 a3.25 3.25 0 1 0 6.5 0 a3.25 3.25 0 1 0 -6.5 0zM250.25 500.5 a3.25 3.25 0 1 0 6.5 0 a3.25 3.25 0 1 0 -6.5 0z" fill="rgba(244, 243, 238, 1)"></path><path d="M305.5 890.5L279.5 864.5" stroke-width="2.17" stroke="rgba(244, 243, 238, 1)"></path><path d="M302.25 890.5 a3.25 3.25 0 1 0 6.5 0 a3.25 3.25 0 1 0 -6.5 0zM276.25 864.5 a3.25 3.25 0 1 0 6.5 0 a3.25 3.25 0 1 0 -6.5 0z" fill="rgba(244, 243, 238, 1)"></path><path d="M305.5 786.5L305.5 825.5" stroke-width="2.17" stroke="rgba(244, 243, 238, 1)"></path><path d="M302.25 786.5 a3.25 3.25 0 1 0 6.5 0 a3.25 3.25 0 1 0 -6.5 0zM302.25 825.5 a3.25 3.25 0 1 0 6.5 0 a3.25 3.25 0 1 0 -6.5 0z" fill="rgba(244, 243, 238, 1)"></path><path d="M214.5 864.5L201.5 864.5L188.5 877.5" stroke-width="2.17" stroke="rgba(244, 243, 238, 1)"></path><path d="M211.25 864.5 a3.25 3.25 0 1 0 6.5 0 a3.25 3.25 0 1 0 -6.5 0zM185.25 877.5 a3.25 3.25 0 1 0 6.5 0 a3.25 3.25 0 1 0 -6.5 0z" fill="rgba(244, 243, 238, 1)"></path><path d="M214.5 773.5L175.5 812.5L175.5 825.5" stroke-width="2.17" stroke="rgba(244, 243, 238, 1)"></path><path d="M211.25 773.5 a3.25 3.25 0 1 0 6.5 0 a3.25 3.25 0 1 0 -6.5 0zM172.25 825.5 a3.25 3.25 0 1 0 6.5 0 a3.25 3.25 0 1 0 -6.5 0z" fill="rgba(244, 243, 238, 1)"></path><path d="M110.5 396.5L110.5 370.5L123.5 357.5L149.5 357.5L162.5 370.5" stroke-width="2.17" stroke="rgba(244, 243, 238, 1)"></path><path d="M107.25 396.5 a3.25 3.25 0 1 0 6.5 0 a3.25 3.25 0 1 0 -6.5 0zM159.25 370.5 a3.25 3.25 0 1 0 6.5 0 a3.25 3.25 0 1 0 -6.5 0z" fill="rgba(244, 243, 238, 1)"></path><path d="M19.5 266.5L32.5 253.5L32.5 240.5L19.5 227.5" stroke-width="2.17" stroke="rgba(244, 243, 238, 1)"></path><path d="M16.25 266.5 a3.25 3.25 0 1 0 6.5 0 a3.25 3.25 0 1 0 -6.5 0zM16.25 227.5 a3.25 3.25 0 1 0 6.5 0 a3.25 3.25 0 1 0 -6.5 0z" fill="rgba(244, 243, 238, 1)"></path><path d="M19.5 799.5L19.5 786.5L6.5 773.5" stroke-width="2.17" stroke="rgba(244, 243, 238, 1)"></path><path d="M16.25 799.5 a3.25 3.25 0 1 0 6.5 0 a3.25 3.25 0 1 0 -6.5 0zM3.25 773.5 a3.25 3.25 0 1 0 6.5 0 a3.25 3.25 0 1 0 -6.5 0z" fill="rgba(244, 243, 238, 1)"></path><path d="M149.5 578.5L123.5 552.5" stroke-width="2.17" stroke="rgba(244, 243, 238, 1)"></path><path d="M146.25 578.5 a3.25 3.25 0 1 0 6.5 0 a3.25 3.25 0 1 0 -6.5 0zM120.25 552.5 a3.25 3.25 0 1 0 6.5 0 a3.25 3.25 0 1 0 -6.5 0z" fill="rgba(244, 243, 238, 1)"></path><path d="M188.5 591.5L201.5 578.5L201.5 565.5L188.5 552.5L175.5 552.5L162.5 565.5L162.5 604.5" stroke-width="2.17" stroke="rgba(244, 243, 238, 1)"></path><path d="M185.25 591.5 a3.25 3.25 0 1 0 6.5 0 a3.25 3.25 0 1 0 -6.5 0zM159.25 604.5 a3.25 3.25 0 1 0 6.5 0 a3.25 3.25 0 1 0 -6.5 0z" fill="rgba(244, 243, 238, 1)"></path><path d="M71.5 851.5L84.5 864.5L84.5 877.5" stroke-width="2.17" stroke="rgba(244, 243, 238, 1)"></path><path d="M68.25 851.5 a3.25 3.25 0 1 0 6.5 0 a3.25 3.25 0 1 0 -6.5 0zM81.25 877.5 a3.25 3.25 0 1 0 6.5 0 a3.25 3.25 0 1 0 -6.5 0z" fill="rgba(244, 243, 238, 1)"></path><path d="M396.5 110.5L370.5 84.5" stroke-width="2.17" stroke="rgba(244, 243, 238, 1)"></path><path d="M393.25 110.5 a3.25 3.25 0 1 0 6.5 0 a3.25 3.25 0 1 0 -6.5 0zM367.25 84.5 a3.25 3.25 0 1 0 6.5 0 a3.25 3.25 0 1 0 -6.5 0z" fill="rgba(244, 243, 238, 1)"></path><path d="M175.5 19.5L162.5 6.5L136.5 6.5" stroke-width="2.17" stroke="rgba(244, 243, 238, 1)"></path><path d="M172.25 19.5 a3.25 3.25 0 1 0 6.5 0 a3.25 3.25 0 1 0 -6.5 0zM133.25 6.5 a3.25 3.25 0 1 0 6.5 0 a3.25 3.25 0 1 0 -6.5 0z" fill="rgba(244, 243, 238, 1)"></path><path d="M32.5 513.5L58.5 513.5" stroke-width="2.17" stroke="rgba(244, 243, 238, 1)"></path><path d="M29.25 513.5 a3.25 3.25 0 1 0 6.5 0 a3.25 3.25 0 1 0 -6.5 0zM55.25 513.5 a3.25 3.25 0 1 0 6.5 0 a3.25 3.25 0 1 0 -6.5 0z" fill="rgba(244, 243, 238, 1)"></path><path d="M227.5 435.5L227.5 461.5" stroke-width="2.17" stroke="rgba(244, 243, 238, 1)"></path><path d="M224.25 435.5 a3.25 3.25 0 1 0 6.5 0 a3.25 3.25 0 1 0 -6.5 0zM224.25 461.5 a3.25 3.25 0 1 0 6.5 0 a3.25 3.25 0 1 0 -6.5 0z" fill="rgba(244, 243, 238, 1)"></path><path d="M266.5 630.5L253.5 630.5L240.5 617.5" stroke-width="2.17" stroke="rgba(244, 243, 238, 1)"></path><path d="M263.25 630.5 a3.25 3.25 0 1 0 6.5 0 a3.25 3.25 0 1 0 -6.5 0zM237.25 617.5 a3.25 3.25 0 1 0 6.5 0 a3.25 3.25 0 1 0 -6.5 0z" fill="rgba(244, 243, 238, 1)"></path><path d="M6.5 71.5L19.5 84.5L19.5 97.5L6.5 110.5" stroke-width="2.17" stroke="rgba(244, 243, 238, 1)"></path><path d="M3.25 71.5 a3.25 3.25 0 1 0 6.5 0 a3.25 3.25 0 1 0 -6.5 0zM3.25 110.5 a3.25 3.25 0 1 0 6.5 0 a3.25 3.25 0 1 0 -6.5 0z" fill="rgba(244, 243, 238, 1)"></path><path d="M175.5 565.5L175.5 591.5" stroke-width="2.17" stroke="rgba(244, 243, 238, 1)"></path><path d="M172.25 565.5 a3.25 3.25 0 1 0 6.5 0 a3.25 3.25 0 1 0 -6.5 0zM172.25 591.5 a3.25 3.25 0 1 0 6.5 0 a3.25 3.25 0 1 0 -6.5 0z" fill="rgba(244, 243, 238, 1)"></path><path d="M292.5 890.5L266.5 890.5" stroke-width="2.17" stroke="rgba(244, 243, 238, 1)"></path><path d="M289.25 890.5 a3.25 3.25 0 1 0 6.5 0 a3.25 3.25 0 1 0 -6.5 0zM263.25 890.5 a3.25 3.25 0 1 0 6.5 0 a3.25 3.25 0 1 0 -6.5 0z" fill="rgba(244, 243, 238, 1)"></path><path d="M214.5 487.5L175.5 448.5L162.5 448.5" stroke-width="2.17" stroke="rgba(244, 243, 238, 1)"></path><path d="M211.25 487.5 a3.25 3.25 0 1 0 6.5 0 a3.25 3.25 0 1 0 -6.5 0zM159.25 448.5 a3.25 3.25 0 1 0 6.5 0 a3.25 3.25 0 1 0 -6.5 0z" fill="rgba(244, 243, 238, 1)"></path><path d="M227.5 695.5L188.5 734.5" stroke-width="2.17" stroke="rgba(244, 243, 238, 1)"></path><path d="M224.25 695.5 a3.25 3.25 0 1 0 6.5 0 a3.25 3.25 0 1 0 -6.5 0zM185.25 734.5 a3.25 3.25 0 1 0 6.5 0 a3.25 3.25 0 1 0 -6.5 0z" fill="rgba(244, 243, 238, 1)"></path><path d="M305.5 175.5L318.5 162.5L331.5 162.5" stroke-width="2.17" stroke="rgba(244, 243, 238, 1)"></path><path d="M302.25 175.5 a3.25 3.25 0 1 0 6.5 0 a3.25 3.25 0 1 0 -6.5 0zM328.25 162.5 a3.25 3.25 0 1 0 6.5 0 a3.25 3.25 0 1 0 -6.5 0z" fill="rgba(244, 243, 238, 1)"></path><path d="M370.5 32.5L344.5 6.5L318.5 6.5" stroke-width="2.17" stroke="rgba(244, 243, 238, 1)"></path><path d="M367.25 32.5 a3.25 3.25 0 1 0 6.5 0 a3.25 3.25 0 1 0 -6.5 0zM315.25 6.5 a3.25 3.25 0 1 0 6.5 0 a3.25 3.25 0 1 0 -6.5 0z" fill="rgba(244, 243, 238, 1)"></path><path d="M331.5 786.5L318.5 773.5L318.5 760.5" stroke-width="2.17" stroke="rgba(244, 243, 238, 1)"></path><path d="M328.25 786.5 a3.25 3.25 0 1 0 6.5 0 a3.25 3.25 0 1 0 -6.5 0zM315.25 760.5 a3.25 3.25 0 1 0 6.5 0 a3.25 3.25 0 1 0 -6.5 0z" fill="rgba(244, 243, 238, 1)"></path><path d="M305.5 97.5L318.5 97.5L331.5 84.5L331.5 71.5" stroke-width="2.17" stroke="rgba(244, 243, 238, 1)"></path><path d="M302.25 97.5 a3.25 3.25 0 1 0 6.5 0 a3.25 3.25 0 1 0 -6.5 0zM328.25 71.5 a3.25 3.25 0 1 0 6.5 0 a3.25 3.25 0 1 0 -6.5 0z" fill="rgba(244, 243, 238, 1)"></path><path d="M58.5 864.5L58.5 825.5" stroke-width="2.17" stroke="rgba(244, 243, 238, 1)"></path><path d="M55.25 864.5 a3.25 3.25 0 1 0 6.5 0 a3.25 3.25 0 1 0 -6.5 0zM55.25 825.5 a3.25 3.25 0 1 0 6.5 0 a3.25 3.25 0 1 0 -6.5 0z" fill="rgba(244, 243, 238, 1)"></path><path d="M305.5 123.5L292.5 110.5L292.5 97.5" stroke-width="2.17" stroke="rgba(244, 243, 238, 1)"></path><path d="M302.25 123.5 a3.25 3.25 0 1 0 6.5 0 a3.25 3.25 0 1 0 -6.5 0zM289.25 97.5 a3.25 3.25 0 1 0 6.5 0 a3.25 3.25 0 1 0 -6.5 0z" fill="rgba(244, 243, 238, 1)"></path><path d="M331.5 123.5L318.5 110.5L305.5 110.5" stroke-width="2.17" stroke="rgba(244, 243, 238, 1)"></path><path d="M328.25 123.5 a3.25 3.25 0 1 0 6.5 0 a3.25 3.25 0 1 0 -6.5 0zM302.25 110.5 a3.25 3.25 0 1 0 6.5 0 a3.25 3.25 0 1 0 -6.5 0z" fill="rgba(244, 243, 238, 1)"></path><path d="M201.5 643.5L201.5 656.5L214.5 669.5" stroke-width="2.17" stroke="rgba(244, 243, 238, 1)"></path><path d="M198.25 643.5 a3.25 3.25 0 1 0 6.5 0 a3.25 3.25 0 1 0 -6.5 0zM211.25 669.5 a3.25 3.25 0 1 0 6.5 0 a3.25 3.25 0 1 0 -6.5 0z" fill="rgba(244, 243, 238, 1)"></path><path d="M266.5 71.5L253.5 84.5L240.5 84.5L227.5 71.5L201.5 71.5" stroke-width="2.17" stroke="rgba(244, 243, 238, 1)"></path><path d="M263.25 71.5 a3.25 3.25 0 1 0 6.5 0 a3.25 3.25 0 1 0 -6.5 0zM198.25 71.5 a3.25 3.25 0 1 0 6.5 0 a3.25 3.25 0 1 0 -6.5 0z" fill="rgba(244, 243, 238, 1)"></path><path d="M58.5 58.5L84.5 58.5" stroke-width="2.17" stroke="rgba(244, 243, 238, 1)"></path><path d="M55.25 58.5 a3.25 3.25 0 1 0 6.5 0 a3.25 3.25 0 1 0 -6.5 0zM81.25 58.5 a3.25 3.25 0 1 0 6.5 0 a3.25 3.25 0 1 0 -6.5 0z" fill="rgba(244, 243, 238, 1)"></path><path d="M149.5 396.5L149.5 370.5" stroke-width="2.17" stroke="rgba(244, 243, 238, 1)"></path><path d="M146.25 396.5 a3.25 3.25 0 1 0 6.5 0 a3.25 3.25 0 1 0 -6.5 0zM146.25 370.5 a3.25 3.25 0 1 0 6.5 0 a3.25 3.25 0 1 0 -6.5 0z" fill="rgba(244, 243, 238, 1)"></path><path d="M409.5 84.5L383.5 84.5" stroke-width="2.17" stroke="rgba(244, 243, 238, 1)"></path><path d="M406.25 84.5 a3.25 3.25 0 1 0 6.5 0 a3.25 3.25 0 1 0 -6.5 0zM380.25 84.5 a3.25 3.25 0 1 0 6.5 0 a3.25 3.25 0 1 0 -6.5 0z" fill="rgba(244, 243, 238, 1)"></path><path d="M84.5 19.5L110.5 19.5L136.5 45.5L136.5 58.5" stroke-width="2.17" stroke="rgba(244, 243, 238, 1)"></path><path d="M81.25 19.5 a3.25 3.25 0 1 0 6.5 0 a3.25 3.25 0 1 0 -6.5 0zM133.25 58.5 a3.25 3.25 0 1 0 6.5 0 a3.25 3.25 0 1 0 -6.5 0z" fill="rgba(244, 243, 238, 1)"></path><path d="M188.5 162.5L201.5 162.5L214.5 175.5" stroke-width="2.17" stroke="rgba(244, 243, 238, 1)"></path><path d="M185.25 162.5 a3.25 3.25 0 1 0 6.5 0 a3.25 3.25 0 1 0 -6.5 0zM211.25 175.5 a3.25 3.25 0 1 0 6.5 0 a3.25 3.25 0 1 0 -6.5 0z" fill="rgba(244, 243, 238, 1)"></path><path d="M162.5 266.5L188.5 266.5" stroke-width="2.17" stroke="rgba(244, 243, 238, 1)"></path><path d="M159.25 266.5 a3.25 3.25 0 1 0 6.5 0 a3.25 3.25 0 1 0 -6.5 0zM185.25 266.5 a3.25 3.25 0 1 0 6.5 0 a3.25 3.25 0 1 0 -6.5 0z" fill="rgba(244, 243, 238, 1)"></path><path d="M370.5 695.5L370.5 669.5" stroke-width="2.17" stroke="rgba(244, 243, 238, 1)"></path><path d="M367.25 695.5 a3.25 3.25 0 1 0 6.5 0 a3.25 3.25 0 1 0 -6.5 0zM367.25 669.5 a3.25 3.25 0 1 0 6.5 0 a3.25 3.25 0 1 0 -6.5 0z" fill="rgba(244, 243, 238, 1)"></path><path d="M110.5 201.5L97.5 188.5L84.5 188.5" stroke-width="2.17" stroke="rgba(244, 243, 238, 1)"></path><path d="M107.25 201.5 a3.25 3.25 0 1 0 6.5 0 a3.25 3.25 0 1 0 -6.5 0zM81.25 188.5 a3.25 3.25 0 1 0 6.5 0 a3.25 3.25 0 1 0 -6.5 0z" fill="rgba(244, 243, 238, 1)"></path><path d="M58.5 448.5L84.5 448.5L97.5 435.5L110.5 435.5" stroke-width="2.17" stroke="rgba(244, 243, 238, 1)"></path><path d="M55.25 448.5 a3.25 3.25 0 1 0 6.5 0 a3.25 3.25 0 1 0 -6.5 0zM107.25 435.5 a3.25 3.25 0 1 0 6.5 0 a3.25 3.25 0 1 0 -6.5 0z" fill="rgba(244, 243, 238, 1)"></path><path d="M84.5 760.5L123.5 760.5" stroke-width="2.17" stroke="rgba(244, 243, 238, 1)"></path><path d="M81.25 760.5 a3.25 3.25 0 1 0 6.5 0 a3.25 3.25 0 1 0 -6.5 0zM120.25 760.5 a3.25 3.25 0 1 0 6.5 0 a3.25 3.25 0 1 0 -6.5 0z" fill="rgba(244, 243, 238, 1)"></path><path d="M32.5 318.5L32.5 344.5" stroke-width="2.17" stroke="rgba(244, 243, 238, 1)"></path><path d="M29.25 318.5 a3.25 3.25 0 1 0 6.5 0 a3.25 3.25 0 1 0 -6.5 0zM29.25 344.5 a3.25 3.25 0 1 0 6.5 0 a3.25 3.25 0 1 0 -6.5 0z" fill="rgba(244, 243, 238, 1)"></path><path d="M409.5 409.5L409.5 383.5" stroke-width="2.17" stroke="rgba(244, 243, 238, 1)"></path><path d="M406.25 409.5 a3.25 3.25 0 1 0 6.5 0 a3.25 3.25 0 1 0 -6.5 0zM406.25 383.5 a3.25 3.25 0 1 0 6.5 0 a3.25 3.25 0 1 0 -6.5 0z" fill="rgba(244, 243, 238, 1)"></path><path d="M383.5 6.5L383.5 32.5" stroke-width="2.17" stroke="rgba(244, 243, 238, 1)"></path><path d="M380.25 6.5 a3.25 3.25 0 1 0 6.5 0 a3.25 3.25 0 1 0 -6.5 0zM380.25 32.5 a3.25 3.25 0 1 0 6.5 0 a3.25 3.25 0 1 0 -6.5 0z" fill="rgba(244, 243, 238, 1)"></path><path d="M292.5 461.5L305.5 474.5L318.5 474.5" stroke-width="2.17" stroke="rgba(244, 243, 238, 1)"></path><path d="M289.25 461.5 a3.25 3.25 0 1 0 6.5 0 a3.25 3.25 0 1 0 -6.5 0zM315.25 474.5 a3.25 3.25 0 1 0 6.5 0 a3.25 3.25 0 1 0 -6.5 0z" fill="rgba(244, 243, 238, 1)"></path><path d="M240.5 227.5L214.5 227.5" stroke-width="2.17" stroke="rgba(244, 243, 238, 1)"></path><path d="M237.25 227.5 a3.25 3.25 0 1 0 6.5 0 a3.25 3.25 0 1 0 -6.5 0zM211.25 227.5 a3.25 3.25 0 1 0 6.5 0 a3.25 3.25 0 1 0 -6.5 0z" fill="rgba(244, 243, 238, 1)"></path><path d="M84.5 435.5L58.5 435.5" stroke-width="2.17" stroke="rgba(244, 243, 238, 1)"></path><path d="M81.25 435.5 a3.25 3.25 0 1 0 6.5 0 a3.25 3.25 0 1 0 -6.5 0zM55.25 435.5 a3.25 3.25 0 1 0 6.5 0 a3.25 3.25 0 1 0 -6.5 0z" fill="rgba(244, 243, 238, 1)"></path><path d="M318.5 461.5L318.5 435.5" stroke-width="2.17" stroke="rgba(244, 243, 238, 1)"></path><path d="M315.25 461.5 a3.25 3.25 0 1 0 6.5 0 a3.25 3.25 0 1 0 -6.5 0zM315.25 435.5 a3.25 3.25 0 1 0 6.5 0 a3.25 3.25 0 1 0 -6.5 0z" fill="rgba(244, 243, 238, 1)"></path><path d="M58.5 630.5L45.5 617.5L32.5 617.5" stroke-width="2.17" stroke="rgba(244, 243, 238, 1)"></path><path d="M55.25 630.5 a3.25 3.25 0 1 0 6.5 0 a3.25 3.25 0 1 0 -6.5 0zM29.25 617.5 a3.25 3.25 0 1 0 6.5 0 a3.25 3.25 0 1 0 -6.5 0z" fill="rgba(244, 243, 238, 1)"></path><path d="M409.5 773.5L409.5 721.5" stroke-width="2.17" stroke="rgba(244, 243, 238, 1)"></path><path d="M406.25 773.5 a3.25 3.25 0 1 0 6.5 0 a3.25 3.25 0 1 0 -6.5 0zM406.25 721.5 a3.25 3.25 0 1 0 6.5 0 a3.25 3.25 0 1 0 -6.5 0z" fill="rgba(244, 243, 238, 1)"></path><path d="M188.5 695.5L188.5 721.5" stroke-width="2.17" stroke="rgba(244, 243, 238, 1)"></path><path d="M185.25 695.5 a3.25 3.25 0 1 0 6.5 0 a3.25 3.25 0 1 0 -6.5 0zM185.25 721.5 a3.25 3.25 0 1 0 6.5 0 a3.25 3.25 0 1 0 -6.5 0z" fill="rgba(244, 243, 238, 1)"></path></g></g><defs><mask id="SvgjsMask1069"><rect width="414" height="896" fill="#ffffff"></rect></mask><mask id="SvgjsMask1070"><rect width="414" height="896" fill="white"></rect><path d="M264.87 136.5 a1.63 1.63 0 1 0 3.26 0 a1.63 1.63 0 1 0 -3.26 0zM407.87 266.5 a1.63 1.63 0 1 0 3.26 0 a1.63 1.63 0 1 0 -3.26 0z" fill="black"></path><path d="M329.87 578.5 a1.63 1.63 0 1 0 3.26 0 a1.63 1.63 0 1 0 -3.26 0zM381.87 825.5 a1.63 1.63 0 1 0 3.26 0 a1.63 1.63 0 1 0 -3.26 0z" fill="black"></path><path d="M30.87 149.5 a1.63 1.63 0 1 0 3.26 0 a1.63 1.63 0 1 0 -3.26 0zM30.87 6.5 a1.63 1.63 0 1 0 3.26 0 a1.63 1.63 0 1 0 -3.26 0z" fill="black"></path><path d="M82.87 175.5 a1.63 1.63 0 1 0 3.26 0 a1.63 1.63 0 1 0 -3.26 0zM4.87 357.5 a1.63 1.63 0 1 0 3.26 0 a1.63 1.63 0 1 0 -3.26 0z" fill="black"></path><path d="M43.87 253.5 a1.63 1.63 0 1 0 3.26 0 a1.63 1.63 0 1 0 -3.26 0zM30.87 500.5 a1.63 1.63 0 1 0 3.26 0 a1.63 1.63 0 1 0 -3.26 0z" fill="black"></path><path d="M121.87 656.5 a1.63 1.63 0 1 0 3.26 0 a1.63 1.63 0 1 0 -3.26 0zM17.87 409.5 a1.63 1.63 0 1 0 3.26 0 a1.63 1.63 0 1 0 -3.26 0z" fill="black"></path><path d="M82.87 253.5 a1.63 1.63 0 1 0 3.26 0 a1.63 1.63 0 1 0 -3.26 0zM56.87 6.5 a1.63 1.63 0 1 0 3.26 0 a1.63 1.63 0 1 0 -3.26 0z" fill="black"></path><path d="M43.87 708.5 a1.63 1.63 0 1 0 3.26 0 a1.63 1.63 0 1 0 -3.26 0zM290.87 565.5 a1.63 1.63 0 1 0 3.26 0 a1.63 1.63 0 1 0 -3.26 0z" fill="black"></path><path d="M355.87 422.5 a1.63 1.63 0 1 0 3.26 0 a1.63 1.63 0 1 0 -3.26 0zM342.87 578.5 a1.63 1.63 0 1 0 3.26 0 a1.63 1.63 0 1 0 -3.26 0z" fill="black"></path><path d="M303.87 656.5 a1.63 1.63 0 1 0 3.26 0 a1.63 1.63 0 1 0 -3.26 0zM368.87 890.5 a1.63 1.63 0 1 0 3.26 0 a1.63 1.63 0 1 0 -3.26 0z" fill="black"></path><path d="M186.87 201.5 a1.63 1.63 0 1 0 3.26 0 a1.63 1.63 0 1 0 -3.26 0zM134.87 201.5 a1.63 1.63 0 1 0 3.26 0 a1.63 1.63 0 1 0 -3.26 0z" fill="black"></path><path d="M407.87 877.5 a1.63 1.63 0 1 0 3.26 0 a1.63 1.63 0 1 0 -3.26 0zM394.87 630.5 a1.63 1.63 0 1 0 3.26 0 a1.63 1.63 0 1 0 -3.26 0z" fill="black"></path><path d="M186.87 773.5 a1.63 1.63 0 1 0 3.26 0 a1.63 1.63 0 1 0 -3.26 0zM277.87 877.5 a1.63 1.63 0 1 0 3.26 0 a1.63 1.63 0 1 0 -3.26 0z" fill="black"></path><path d="M329.87 318.5 a1.63 1.63 0 1 0 3.26 0 a1.63 1.63 0 1 0 -3.26 0zM407.87 565.5 a1.63 1.63 0 1 0 3.26 0 a1.63 1.63 0 1 0 -3.26 0z" fill="black"></path><path d="M251.87 773.5 a1.63 1.63 0 1 0 3.26 0 a1.63 1.63 0 1 0 -3.26 0zM147.87 877.5 a1.63 1.63 0 1 0 3.26 0 a1.63 1.63 0 1 0 -3.26 0z" fill="black"></path><path d="M355.87 669.5 a1.63 1.63 0 1 0 3.26 0 a1.63 1.63 0 1 0 -3.26 0zM316.87 422.5 a1.63 1.63 0 1 0 3.26 0 a1.63 1.63 0 1 0 -3.26 0z" fill="black"></path><path d="M108.87 266.5 a1.63 1.63 0 1 0 3.26 0 a1.63 1.63 0 1 0 -3.26 0zM56.87 279.5 a1.63 1.63 0 1 0 3.26 0 a1.63 1.63 0 1 0 -3.26 0z" fill="black"></path><path d="M225.87 513.5 a1.63 1.63 0 1 0 3.26 0 a1.63 1.63 0 1 0 -3.26 0zM342.87 344.5 a1.63 1.63 0 1 0 3.26 0 a1.63 1.63 0 1 0 -3.26 0z" fill="black"></path><path d="M329.87 565.5 a1.63 1.63 0 1 0 3.26 0 a1.63 1.63 0 1 0 -3.26 0zM342.87 539.5 a1.63 1.63 0 1 0 3.26 0 a1.63 1.63 0 1 0 -3.26 0z" fill="black"></path><path d="M134.87 695.5 a1.63 1.63 0 1 0 3.26 0 a1.63 1.63 0 1 0 -3.26 0zM290.87 591.5 a1.63 1.63 0 1 0 3.26 0 a1.63 1.63 0 1 0 -3.26 0z" fill="black"></path><path d="M212.87 370.5 a1.63 1.63 0 1 0 3.26 0 a1.63 1.63 0 1 0 -3.26 0zM17.87 487.5 a1.63 1.63 0 1 0 3.26 0 a1.63 1.63 0 1 0 -3.26 0z" fill="black"></path><path d="M290.87 175.5 a1.63 1.63 0 1 0 3.26 0 a1.63 1.63 0 1 0 -3.26 0zM69.87 6.5 a1.63 1.63 0 1 0 3.26 0 a1.63 1.63 0 1 0 -3.26 0z" fill="black"></path><path d="M355.87 721.5 a1.63 1.63 0 1 0 3.26 0 a1.63 1.63 0 1 0 -3.26 0zM368.87 747.5 a1.63 1.63 0 1 0 3.26 0 a1.63 1.63 0 1 0 -3.26 0z" fill="black"></path><path d="M225.87 747.5 a1.63 1.63 0 1 0 3.26 0 a1.63 1.63 0 1 0 -3.26 0zM225.87 760.5 a1.63 1.63 0 1 0 3.26 0 a1.63 1.63 0 1 0 -3.26 0z" fill="black"></path><path d="M251.87 474.5 a1.63 1.63 0 1 0 3.26 0 a1.63 1.63 0 1 0 -3.26 0zM251.87 227.5 a1.63 1.63 0 1 0 3.26 0 a1.63 1.63 0 1 0 -3.26 0z" fill="black"></path><path d="M173.87 45.5 a1.63 1.63 0 1 0 3.26 0 a1.63 1.63 0 1 0 -3.26 0zM407.87 71.5 a1.63 1.63 0 1 0 3.26 0 a1.63 1.63 0 1 0 -3.26 0z" fill="black"></path><path d="M290.87 695.5 a1.63 1.63 0 1 0 3.26 0 a1.63 1.63 0 1 0 -3.26 0zM290.87 604.5 a1.63 1.63 0 1 0 3.26 0 a1.63 1.63 0 1 0 -3.26 0z" fill="black"></path><path d="M342.87 175.5 a1.63 1.63 0 1 0 3.26 0 a1.63 1.63 0 1 0 -3.26 0zM303.87 357.5 a1.63 1.63 0 1 0 3.26 0 a1.63 1.63 0 1 0 -3.26 0z" fill="black"></path><path d="M394.87 58.5 a1.63 1.63 0 1 0 3.26 0 a1.63 1.63 0 1 0 -3.26 0zM394.87 6.5 a1.63 1.63 0 1 0 3.26 0 a1.63 1.63 0 1 0 -3.26 0z" fill="black"></path><path d="M17.87 110.5 a1.63 1.63 0 1 0 3.26 0 a1.63 1.63 0 1 0 -3.26 0zM4.87 175.5 a1.63 1.63 0 1 0 3.26 0 a1.63 1.63 0 1 0 -3.26 0z" fill="black"></path><path d="M212.87 604.5 a1.63 1.63 0 1 0 3.26 0 a1.63 1.63 0 1 0 -3.26 0zM277.87 851.5 a1.63 1.63 0 1 0 3.26 0 a1.63 1.63 0 1 0 -3.26 0z" fill="black"></path><path d="M160.87 526.5 a1.63 1.63 0 1 0 3.26 0 a1.63 1.63 0 1 0 -3.26 0zM329.87 448.5 a1.63 1.63 0 1 0 3.26 0 a1.63 1.63 0 1 0 -3.26 0z" fill="black"></path><path d="M173.87 461.5 a1.63 1.63 0 1 0 3.26 0 a1.63 1.63 0 1 0 -3.26 0zM43.87 552.5 a1.63 1.63 0 1 0 3.26 0 a1.63 1.63 0 1 0 -3.26 0z" fill="black"></path><path d="M264.87 734.5 a1.63 1.63 0 1 0 3.26 0 a1.63 1.63 0 1 0 -3.26 0zM264.87 864.5 a1.63 1.63 0 1 0 3.26 0 a1.63 1.63 0 1 0 -3.26 0z" fill="black"></path><path d="M212.87 448.5 a1.63 1.63 0 1 0 3.26 0 a1.63 1.63 0 1 0 -3.26 0zM147.87 253.5 a1.63 1.63 0 1 0 3.26 0 a1.63 1.63 0 1 0 -3.26 0z" fill="black"></path><path d="M264.87 162.5 a1.63 1.63 0 1 0 3.26 0 a1.63 1.63 0 1 0 -3.26 0zM134.87 110.5 a1.63 1.63 0 1 0 3.26 0 a1.63 1.63 0 1 0 -3.26 0z" fill="black"></path><path d="M368.87 500.5 a1.63 1.63 0 1 0 3.26 0 a1.63 1.63 0 1 0 -3.26 0zM407.87 617.5 a1.63 1.63 0 1 0 3.26 0 a1.63 1.63 0 1 0 -3.26 0z" fill="black"></path><path d="M264.87 396.5 a1.63 1.63 0 1 0 3.26 0 a1.63 1.63 0 1 0 -3.26 0zM238.87 149.5 a1.63 1.63 0 1 0 3.26 0 a1.63 1.63 0 1 0 -3.26 0z" fill="black"></path><path d="M160.87 825.5 a1.63 1.63 0 1 0 3.26 0 a1.63 1.63 0 1 0 -3.26 0zM225.87 773.5 a1.63 1.63 0 1 0 3.26 0 a1.63 1.63 0 1 0 -3.26 0z" fill="black"></path><path d="M17.87 838.5 a1.63 1.63 0 1 0 3.26 0 a1.63 1.63 0 1 0 -3.26 0zM4.87 890.5 a1.63 1.63 0 1 0 3.26 0 a1.63 1.63 0 1 0 -3.26 0z" fill="black"></path><path d="M17.87 708.5 a1.63 1.63 0 1 0 3.26 0 a1.63 1.63 0 1 0 -3.26 0zM121.87 890.5 a1.63 1.63 0 1 0 3.26 0 a1.63 1.63 0 1 0 -3.26 0z" fill="black"></path><path d="M199.87 110.5 a1.63 1.63 0 1 0 3.26 0 a1.63 1.63 0 1 0 -3.26 0zM134.87 188.5 a1.63 1.63 0 1 0 3.26 0 a1.63 1.63 0 1 0 -3.26 0z" fill="black"></path><path d="M394.87 552.5 a1.63 1.63 0 1 0 3.26 0 a1.63 1.63 0 1 0 -3.26 0zM407.87 604.5 a1.63 1.63 0 1 0 3.26 0 a1.63 1.63 0 1 0 -3.26 0z" fill="black"></path><path d="M225.87 409.5 a1.63 1.63 0 1 0 3.26 0 a1.63 1.63 0 1 0 -3.26 0zM199.87 539.5 a1.63 1.63 0 1 0 3.26 0 a1.63 1.63 0 1 0 -3.26 0z" fill="black"></path><path d="M264.87 617.5 a1.63 1.63 0 1 0 3.26 0 a1.63 1.63 0 1 0 -3.26 0zM277.87 656.5 a1.63 1.63 0 1 0 3.26 0 a1.63 1.63 0 1 0 -3.26 0z" fill="black"></path><path d="M212.87 279.5 a1.63 1.63 0 1 0 3.26 0 a1.63 1.63 0 1 0 -3.26 0zM43.87 500.5 a1.63 1.63 0 1 0 3.26 0 a1.63 1.63 0 1 0 -3.26 0z" fill="black"></path><path d="M95.87 422.5 a1.63 1.63 0 1 0 3.26 0 a1.63 1.63 0 1 0 -3.26 0zM56.87 422.5 a1.63 1.63 0 1 0 3.26 0 a1.63 1.63 0 1 0 -3.26 0z" fill="black"></path><path d="M290.87 279.5 a1.63 1.63 0 1 0 3.26 0 a1.63 1.63 0 1 0 -3.26 0zM407.87 305.5 a1.63 1.63 0 1 0 3.26 0 a1.63 1.63 0 1 0 -3.26 0z" fill="black"></path><path d="M134.87 279.5 a1.63 1.63 0 1 0 3.26 0 a1.63 1.63 0 1 0 -3.26 0zM251.87 214.5 a1.63 1.63 0 1 0 3.26 0 a1.63 1.63 0 1 0 -3.26 0z" fill="black"></path><path d="M316.87 656.5 a1.63 1.63 0 1 0 3.26 0 a1.63 1.63 0 1 0 -3.26 0zM342.87 721.5 a1.63 1.63 0 1 0 3.26 0 a1.63 1.63 0 1 0 -3.26 0z" fill="black"></path><path d="M95.87 461.5 a1.63 1.63 0 1 0 3.26 0 a1.63 1.63 0 1 0 -3.26 0zM56.87 487.5 a1.63 1.63 0 1 0 3.26 0 a1.63 1.63 0 1 0 -3.26 0z" fill="black"></path><path d="M160.87 175.5 a1.63 1.63 0 1 0 3.26 0 a1.63 1.63 0 1 0 -3.26 0zM251.87 188.5 a1.63 1.63 0 1 0 3.26 0 a1.63 1.63 0 1 0 -3.26 0z" fill="black"></path><path d="M134.87 344.5 a1.63 1.63 0 1 0 3.26 0 a1.63 1.63 0 1 0 -3.26 0zM121.87 435.5 a1.63 1.63 0 1 0 3.26 0 a1.63 1.63 0 1 0 -3.26 0z" fill="black"></path><path d="M251.87 708.5 a1.63 1.63 0 1 0 3.26 0 a1.63 1.63 0 1 0 -3.26 0zM147.87 760.5 a1.63 1.63 0 1 0 3.26 0 a1.63 1.63 0 1 0 -3.26 0z" fill="black"></path><path d="M355.87 84.5 a1.63 1.63 0 1 0 3.26 0 a1.63 1.63 0 1 0 -3.26 0zM407.87 162.5 a1.63 1.63 0 1 0 3.26 0 a1.63 1.63 0 1 0 -3.26 0z" fill="black"></path><path d="M355.87 331.5 a1.63 1.63 0 1 0 3.26 0 a1.63 1.63 0 1 0 -3.26 0zM407.87 318.5 a1.63 1.63 0 1 0 3.26 0 a1.63 1.63 0 1 0 -3.26 0z" fill="black"></path><path d="M95.87 890.5 a1.63 1.63 0 1 0 3.26 0 a1.63 1.63 0 1 0 -3.26 0zM17.87 890.5 a1.63 1.63 0 1 0 3.26 0 a1.63 1.63 0 1 0 -3.26 0z" fill="black"></path><path d="M199.87 149.5 a1.63 1.63 0 1 0 3.26 0 a1.63 1.63 0 1 0 -3.26 0zM251.87 175.5 a1.63 1.63 0 1 0 3.26 0 a1.63 1.63 0 1 0 -3.26 0z" fill="black"></path><path d="M69.87 240.5 a1.63 1.63 0 1 0 3.26 0 a1.63 1.63 0 1 0 -3.26 0zM82.87 266.5 a1.63 1.63 0 1 0 3.26 0 a1.63 1.63 0 1 0 -3.26 0z" fill="black"></path><path d="M121.87 279.5 a1.63 1.63 0 1 0 3.26 0 a1.63 1.63 0 1 0 -3.26 0zM69.87 344.5 a1.63 1.63 0 1 0 3.26 0 a1.63 1.63 0 1 0 -3.26 0z" fill="black"></path><path d="M69.87 799.5 a1.63 1.63 0 1 0 3.26 0 a1.63 1.63 0 1 0 -3.26 0zM108.87 890.5 a1.63 1.63 0 1 0 3.26 0 a1.63 1.63 0 1 0 -3.26 0z" fill="black"></path><path d="M56.87 461.5 a1.63 1.63 0 1 0 3.26 0 a1.63 1.63 0 1 0 -3.26 0zM108.87 448.5 a1.63 1.63 0 1 0 3.26 0 a1.63 1.63 0 1 0 -3.26 0z" fill="black"></path><path d="M368.87 357.5 a1.63 1.63 0 1 0 3.26 0 a1.63 1.63 0 1 0 -3.26 0zM381.87 422.5 a1.63 1.63 0 1 0 3.26 0 a1.63 1.63 0 1 0 -3.26 0z" fill="black"></path><path d="M355.87 188.5 a1.63 1.63 0 1 0 3.26 0 a1.63 1.63 0 1 0 -3.26 0zM277.87 149.5 a1.63 1.63 0 1 0 3.26 0 a1.63 1.63 0 1 0 -3.26 0z" fill="black"></path><path d="M316.87 513.5 a1.63 1.63 0 1 0 3.26 0 a1.63 1.63 0 1 0 -3.26 0zM212.87 539.5 a1.63 1.63 0 1 0 3.26 0 a1.63 1.63 0 1 0 -3.26 0z" fill="black"></path><path d="M30.87 812.5 a1.63 1.63 0 1 0 3.26 0 a1.63 1.63 0 1 0 -3.26 0zM4.87 838.5 a1.63 1.63 0 1 0 3.26 0 a1.63 1.63 0 1 0 -3.26 0z" fill="black"></path><path d="M4.87 539.5 a1.63 1.63 0 1 0 3.26 0 a1.63 1.63 0 1 0 -3.26 0zM56.87 786.5 a1.63 1.63 0 1 0 3.26 0 a1.63 1.63 0 1 0 -3.26 0z" fill="black"></path><path d="M212.87 682.5 a1.63 1.63 0 1 0 3.26 0 a1.63 1.63 0 1 0 -3.26 0zM134.87 812.5 a1.63 1.63 0 1 0 3.26 0 a1.63 1.63 0 1 0 -3.26 0z" fill="black"></path><path d="M82.87 292.5 a1.63 1.63 0 1 0 3.26 0 a1.63 1.63 0 1 0 -3.26 0zM56.87 292.5 a1.63 1.63 0 1 0 3.26 0 a1.63 1.63 0 1 0 -3.26 0z" fill="black"></path><path d="M199.87 331.5 a1.63 1.63 0 1 0 3.26 0 a1.63 1.63 0 1 0 -3.26 0zM225.87 331.5 a1.63 1.63 0 1 0 3.26 0 a1.63 1.63 0 1 0 -3.26 0z" fill="black"></path><path d="M394.87 214.5 a1.63 1.63 0 1 0 3.26 0 a1.63 1.63 0 1 0 -3.26 0zM407.87 292.5 a1.63 1.63 0 1 0 3.26 0 a1.63 1.63 0 1 0 -3.26 0z" fill="black"></path><path d="M264.87 682.5 a1.63 1.63 0 1 0 3.26 0 a1.63 1.63 0 1 0 -3.26 0zM251.87 656.5 a1.63 1.63 0 1 0 3.26 0 a1.63 1.63 0 1 0 -3.26 0z" fill="black"></path><path d="M329.87 110.5 a1.63 1.63 0 1 0 3.26 0 a1.63 1.63 0 1 0 -3.26 0zM186.87 58.5 a1.63 1.63 0 1 0 3.26 0 a1.63 1.63 0 1 0 -3.26 0z" fill="black"></path><path d="M173.87 734.5 a1.63 1.63 0 1 0 3.26 0 a1.63 1.63 0 1 0 -3.26 0zM173.87 669.5 a1.63 1.63 0 1 0 3.26 0 a1.63 1.63 0 1 0 -3.26 0z" fill="black"></path><path d="M329.87 864.5 a1.63 1.63 0 1 0 3.26 0 a1.63 1.63 0 1 0 -3.26 0zM303.87 708.5 a1.63 1.63 0 1 0 3.26 0 a1.63 1.63 0 1 0 -3.26 0z" fill="black"></path><path d="M69.87 838.5 a1.63 1.63 0 1 0 3.26 0 a1.63 1.63 0 1 0 -3.26 0zM4.87 747.5 a1.63 1.63 0 1 0 3.26 0 a1.63 1.63 0 1 0 -3.26 0z" fill="black"></path><path d="M342.87 838.5 a1.63 1.63 0 1 0 3.26 0 a1.63 1.63 0 1 0 -3.26 0zM303.87 747.5 a1.63 1.63 0 1 0 3.26 0 a1.63 1.63 0 1 0 -3.26 0z" fill="black"></path><path d="M173.87 435.5 a1.63 1.63 0 1 0 3.26 0 a1.63 1.63 0 1 0 -3.26 0zM147.87 448.5 a1.63 1.63 0 1 0 3.26 0 a1.63 1.63 0 1 0 -3.26 0z" fill="black"></path><path d="M43.87 604.5 a1.63 1.63 0 1 0 3.26 0 a1.63 1.63 0 1 0 -3.26 0zM108.87 669.5 a1.63 1.63 0 1 0 3.26 0 a1.63 1.63 0 1 0 -3.26 0z" fill="black"></path><path d="M264.87 435.5 a1.63 1.63 0 1 0 3.26 0 a1.63 1.63 0 1 0 -3.26 0zM277.87 344.5 a1.63 1.63 0 1 0 3.26 0 a1.63 1.63 0 1 0 -3.26 0z" fill="black"></path><path d="M134.87 500.5 a1.63 1.63 0 1 0 3.26 0 a1.63 1.63 0 1 0 -3.26 0zM134.87 643.5 a1.63 1.63 0 1 0 3.26 0 a1.63 1.63 0 1 0 -3.26 0z" fill="black"></path><path d="M303.87 383.5 a1.63 1.63 0 1 0 3.26 0 a1.63 1.63 0 1 0 -3.26 0zM342.87 357.5 a1.63 1.63 0 1 0 3.26 0 a1.63 1.63 0 1 0 -3.26 0z" fill="black"></path><path d="M277.87 123.5 a1.63 1.63 0 1 0 3.26 0 a1.63 1.63 0 1 0 -3.26 0zM277.87 71.5 a1.63 1.63 0 1 0 3.26 0 a1.63 1.63 0 1 0 -3.26 0z" fill="black"></path><path d="M329.87 422.5 a1.63 1.63 0 1 0 3.26 0 a1.63 1.63 0 1 0 -3.26 0zM342.87 370.5 a1.63 1.63 0 1 0 3.26 0 a1.63 1.63 0 1 0 -3.26 0z" fill="black"></path><path d="M173.87 474.5 a1.63 1.63 0 1 0 3.26 0 a1.63 1.63 0 1 0 -3.26 0zM56.87 565.5 a1.63 1.63 0 1 0 3.26 0 a1.63 1.63 0 1 0 -3.26 0z" fill="black"></path><path d="M199.87 240.5 a1.63 1.63 0 1 0 3.26 0 a1.63 1.63 0 1 0 -3.26 0zM147.87 240.5 a1.63 1.63 0 1 0 3.26 0 a1.63 1.63 0 1 0 -3.26 0z" fill="black"></path><path d="M277.87 188.5 a1.63 1.63 0 1 0 3.26 0 a1.63 1.63 0 1 0 -3.26 0zM277.87 227.5 a1.63 1.63 0 1 0 3.26 0 a1.63 1.63 0 1 0 -3.26 0z" fill="black"></path><path d="M95.87 214.5 a1.63 1.63 0 1 0 3.26 0 a1.63 1.63 0 1 0 -3.26 0zM82.87 240.5 a1.63 1.63 0 1 0 3.26 0 a1.63 1.63 0 1 0 -3.26 0z" fill="black"></path><path d="M82.87 305.5 a1.63 1.63 0 1 0 3.26 0 a1.63 1.63 0 1 0 -3.26 0zM56.87 305.5 a1.63 1.63 0 1 0 3.26 0 a1.63 1.63 0 1 0 -3.26 0z" fill="black"></path><path d="M212.87 396.5 a1.63 1.63 0 1 0 3.26 0 a1.63 1.63 0 1 0 -3.26 0zM238.87 396.5 a1.63 1.63 0 1 0 3.26 0 a1.63 1.63 0 1 0 -3.26 0z" fill="black"></path><path d="M69.87 656.5 a1.63 1.63 0 1 0 3.26 0 a1.63 1.63 0 1 0 -3.26 0zM17.87 695.5 a1.63 1.63 0 1 0 3.26 0 a1.63 1.63 0 1 0 -3.26 0z" fill="black"></path><path d="M199.87 500.5 a1.63 1.63 0 1 0 3.26 0 a1.63 1.63 0 1 0 -3.26 0zM134.87 487.5 a1.63 1.63 0 1 0 3.26 0 a1.63 1.63 0 1 0 -3.26 0z" fill="black"></path><path d="M342.87 227.5 a1.63 1.63 0 1 0 3.26 0 a1.63 1.63 0 1 0 -3.26 0zM381.87 227.5 a1.63 1.63 0 1 0 3.26 0 a1.63 1.63 0 1 0 -3.26 0z" fill="black"></path><path d="M316.87 175.5 a1.63 1.63 0 1 0 3.26 0 a1.63 1.63 0 1 0 -3.26 0zM303.87 201.5 a1.63 1.63 0 1 0 3.26 0 a1.63 1.63 0 1 0 -3.26 0z" fill="black"></path><path d="M173.87 760.5 a1.63 1.63 0 1 0 3.26 0 a1.63 1.63 0 1 0 -3.26 0zM264.87 721.5 a1.63 1.63 0 1 0 3.26 0 a1.63 1.63 0 1 0 -3.26 0z" fill="black"></path><path d="M264.87 539.5 a1.63 1.63 0 1 0 3.26 0 a1.63 1.63 0 1 0 -3.26 0zM316.87 526.5 a1.63 1.63 0 1 0 3.26 0 a1.63 1.63 0 1 0 -3.26 0z" fill="black"></path><path d="M238.87 838.5 a1.63 1.63 0 1 0 3.26 0 a1.63 1.63 0 1 0 -3.26 0zM251.87 864.5 a1.63 1.63 0 1 0 3.26 0 a1.63 1.63 0 1 0 -3.26 0z" fill="black"></path><path d="M394.87 474.5 a1.63 1.63 0 1 0 3.26 0 a1.63 1.63 0 1 0 -3.26 0zM381.87 604.5 a1.63 1.63 0 1 0 3.26 0 a1.63 1.63 0 1 0 -3.26 0z" fill="black"></path><path d="M264.87 695.5 a1.63 1.63 0 1 0 3.26 0 a1.63 1.63 0 1 0 -3.26 0zM251.87 669.5 a1.63 1.63 0 1 0 3.26 0 a1.63 1.63 0 1 0 -3.26 0z" fill="black"></path><path d="M355.87 97.5 a1.63 1.63 0 1 0 3.26 0 a1.63 1.63 0 1 0 -3.26 0zM381.87 123.5 a1.63 1.63 0 1 0 3.26 0 a1.63 1.63 0 1 0 -3.26 0z" fill="black"></path><path d="M381.87 149.5 a1.63 1.63 0 1 0 3.26 0 a1.63 1.63 0 1 0 -3.26 0zM342.87 149.5 a1.63 1.63 0 1 0 3.26 0 a1.63 1.63 0 1 0 -3.26 0z" fill="black"></path><path d="M342.87 864.5 a1.63 1.63 0 1 0 3.26 0 a1.63 1.63 0 1 0 -3.26 0zM342.87 760.5 a1.63 1.63 0 1 0 3.26 0 a1.63 1.63 0 1 0 -3.26 0z" fill="black"></path><path d="M342.87 643.5 a1.63 1.63 0 1 0 3.26 0 a1.63 1.63 0 1 0 -3.26 0zM368.87 656.5 a1.63 1.63 0 1 0 3.26 0 a1.63 1.63 0 1 0 -3.26 0z" fill="black"></path><path d="M17.87 591.5 a1.63 1.63 0 1 0 3.26 0 a1.63 1.63 0 1 0 -3.26 0zM17.87 552.5 a1.63 1.63 0 1 0 3.26 0 a1.63 1.63 0 1 0 -3.26 0z" fill="black"></path><path d="M30.87 214.5 a1.63 1.63 0 1 0 3.26 0 a1.63 1.63 0 1 0 -3.26 0zM56.87 175.5 a1.63 1.63 0 1 0 3.26 0 a1.63 1.63 0 1 0 -3.26 0z" fill="black"></path><path d="M134.87 318.5 a1.63 1.63 0 1 0 3.26 0 a1.63 1.63 0 1 0 -3.26 0zM173.87 318.5 a1.63 1.63 0 1 0 3.26 0 a1.63 1.63 0 1 0 -3.26 0z" fill="black"></path><path d="M394.87 838.5 a1.63 1.63 0 1 0 3.26 0 a1.63 1.63 0 1 0 -3.26 0zM407.87 890.5 a1.63 1.63 0 1 0 3.26 0 a1.63 1.63 0 1 0 -3.26 0z" fill="black"></path><path d="M368.87 630.5 a1.63 1.63 0 1 0 3.26 0 a1.63 1.63 0 1 0 -3.26 0zM316.87 565.5 a1.63 1.63 0 1 0 3.26 0 a1.63 1.63 0 1 0 -3.26 0z" fill="black"></path><path d="M17.87 877.5 a1.63 1.63 0 1 0 3.26 0 a1.63 1.63 0 1 0 -3.26 0zM56.87 812.5 a1.63 1.63 0 1 0 3.26 0 a1.63 1.63 0 1 0 -3.26 0z" fill="black"></path><path d="M329.87 669.5 a1.63 1.63 0 1 0 3.26 0 a1.63 1.63 0 1 0 -3.26 0zM368.87 708.5 a1.63 1.63 0 1 0 3.26 0 a1.63 1.63 0 1 0 -3.26 0z" fill="black"></path><path d="M95.87 773.5 a1.63 1.63 0 1 0 3.26 0 a1.63 1.63 0 1 0 -3.26 0zM147.87 773.5 a1.63 1.63 0 1 0 3.26 0 a1.63 1.63 0 1 0 -3.26 0z" fill="black"></path><path d="M56.87 318.5 a1.63 1.63 0 1 0 3.26 0 a1.63 1.63 0 1 0 -3.26 0zM108.87 318.5 a1.63 1.63 0 1 0 3.26 0 a1.63 1.63 0 1 0 -3.26 0z" fill="black"></path><path d="M43.87 123.5 a1.63 1.63 0 1 0 3.26 0 a1.63 1.63 0 1 0 -3.26 0zM43.87 6.5 a1.63 1.63 0 1 0 3.26 0 a1.63 1.63 0 1 0 -3.26 0z" fill="black"></path><path d="M225.87 422.5 a1.63 1.63 0 1 0 3.26 0 a1.63 1.63 0 1 0 -3.26 0zM199.87 409.5 a1.63 1.63 0 1 0 3.26 0 a1.63 1.63 0 1 0 -3.26 0z" fill="black"></path><path d="M212.87 136.5 a1.63 1.63 0 1 0 3.26 0 a1.63 1.63 0 1 0 -3.26 0zM147.87 188.5 a1.63 1.63 0 1 0 3.26 0 a1.63 1.63 0 1 0 -3.26 0z" fill="black"></path><path d="M186.87 149.5 a1.63 1.63 0 1 0 3.26 0 a1.63 1.63 0 1 0 -3.26 0zM173.87 175.5 a1.63 1.63 0 1 0 3.26 0 a1.63 1.63 0 1 0 -3.26 0z" fill="black"></path><path d="M95.87 32.5 a1.63 1.63 0 1 0 3.26 0 a1.63 1.63 0 1 0 -3.26 0zM186.87 84.5 a1.63 1.63 0 1 0 3.26 0 a1.63 1.63 0 1 0 -3.26 0z" fill="black"></path><path d="M56.87 97.5 a1.63 1.63 0 1 0 3.26 0 a1.63 1.63 0 1 0 -3.26 0zM108.87 71.5 a1.63 1.63 0 1 0 3.26 0 a1.63 1.63 0 1 0 -3.26 0z" fill="black"></path><path d="M355.87 877.5 a1.63 1.63 0 1 0 3.26 0 a1.63 1.63 0 1 0 -3.26 0zM355.87 838.5 a1.63 1.63 0 1 0 3.26 0 a1.63 1.63 0 1 0 -3.26 0z" fill="black"></path><path d="M134.87 539.5 a1.63 1.63 0 1 0 3.26 0 a1.63 1.63 0 1 0 -3.26 0zM160.87 539.5 a1.63 1.63 0 1 0 3.26 0 a1.63 1.63 0 1 0 -3.26 0z" fill="black"></path><path d="M186.87 513.5 a1.63 1.63 0 1 0 3.26 0 a1.63 1.63 0 1 0 -3.26 0zM134.87 630.5 a1.63 1.63 0 1 0 3.26 0 a1.63 1.63 0 1 0 -3.26 0z" fill="black"></path><path d="M4.87 760.5 a1.63 1.63 0 1 0 3.26 0 a1.63 1.63 0 1 0 -3.26 0zM43.87 812.5 a1.63 1.63 0 1 0 3.26 0 a1.63 1.63 0 1 0 -3.26 0z" fill="black"></path><path d="M82.87 708.5 a1.63 1.63 0 1 0 3.26 0 a1.63 1.63 0 1 0 -3.26 0zM134.87 760.5 a1.63 1.63 0 1 0 3.26 0 a1.63 1.63 0 1 0 -3.26 0z" fill="black"></path><path d="M17.87 357.5 a1.63 1.63 0 1 0 3.26 0 a1.63 1.63 0 1 0 -3.26 0zM4.87 409.5 a1.63 1.63 0 1 0 3.26 0 a1.63 1.63 0 1 0 -3.26 0z" fill="black"></path><path d="M82.87 357.5 a1.63 1.63 0 1 0 3.26 0 a1.63 1.63 0 1 0 -3.26 0zM121.87 344.5 a1.63 1.63 0 1 0 3.26 0 a1.63 1.63 0 1 0 -3.26 0z" fill="black"></path><path d="M381.87 58.5 a1.63 1.63 0 1 0 3.26 0 a1.63 1.63 0 1 0 -3.26 0zM173.87 32.5 a1.63 1.63 0 1 0 3.26 0 a1.63 1.63 0 1 0 -3.26 0z" fill="black"></path><path d="M147.87 292.5 a1.63 1.63 0 1 0 3.26 0 a1.63 1.63 0 1 0 -3.26 0zM199.87 266.5 a1.63 1.63 0 1 0 3.26 0 a1.63 1.63 0 1 0 -3.26 0z" fill="black"></path><path d="M225.87 318.5 a1.63 1.63 0 1 0 3.26 0 a1.63 1.63 0 1 0 -3.26 0zM225.87 292.5 a1.63 1.63 0 1 0 3.26 0 a1.63 1.63 0 1 0 -3.26 0z" fill="black"></path><path d="M82.87 110.5 a1.63 1.63 0 1 0 3.26 0 a1.63 1.63 0 1 0 -3.26 0zM56.87 110.5 a1.63 1.63 0 1 0 3.26 0 a1.63 1.63 0 1 0 -3.26 0z" fill="black"></path><path d="M108.87 188.5 a1.63 1.63 0 1 0 3.26 0 a1.63 1.63 0 1 0 -3.26 0zM69.87 97.5 a1.63 1.63 0 1 0 3.26 0 a1.63 1.63 0 1 0 -3.26 0z" fill="black"></path><path d="M30.87 851.5 a1.63 1.63 0 1 0 3.26 0 a1.63 1.63 0 1 0 -3.26 0zM30.87 877.5 a1.63 1.63 0 1 0 3.26 0 a1.63 1.63 0 1 0 -3.26 0z" fill="black"></path><path d="M17.87 630.5 a1.63 1.63 0 1 0 3.26 0 a1.63 1.63 0 1 0 -3.26 0zM108.87 656.5 a1.63 1.63 0 1 0 3.26 0 a1.63 1.63 0 1 0 -3.26 0z" fill="black"></path><path d="M342.87 19.5 a1.63 1.63 0 1 0 3.26 0 a1.63 1.63 0 1 0 -3.26 0zM381.87 45.5 a1.63 1.63 0 1 0 3.26 0 a1.63 1.63 0 1 0 -3.26 0z" fill="black"></path><path d="M199.87 695.5 a1.63 1.63 0 1 0 3.26 0 a1.63 1.63 0 1 0 -3.26 0zM186.87 669.5 a1.63 1.63 0 1 0 3.26 0 a1.63 1.63 0 1 0 -3.26 0z" fill="black"></path><path d="M368.87 188.5 a1.63 1.63 0 1 0 3.26 0 a1.63 1.63 0 1 0 -3.26 0zM381.87 162.5 a1.63 1.63 0 1 0 3.26 0 a1.63 1.63 0 1 0 -3.26 0z" fill="black"></path><path d="M186.87 747.5 a1.63 1.63 0 1 0 3.26 0 a1.63 1.63 0 1 0 -3.26 0zM238.87 708.5 a1.63 1.63 0 1 0 3.26 0 a1.63 1.63 0 1 0 -3.26 0z" fill="black"></path><path d="M407.87 643.5 a1.63 1.63 0 1 0 3.26 0 a1.63 1.63 0 1 0 -3.26 0zM407.87 695.5 a1.63 1.63 0 1 0 3.26 0 a1.63 1.63 0 1 0 -3.26 0z" fill="black"></path><path d="M303.87 318.5 a1.63 1.63 0 1 0 3.26 0 a1.63 1.63 0 1 0 -3.26 0zM316.87 344.5 a1.63 1.63 0 1 0 3.26 0 a1.63 1.63 0 1 0 -3.26 0z" fill="black"></path><path d="M225.87 669.5 a1.63 1.63 0 1 0 3.26 0 a1.63 1.63 0 1 0 -3.26 0zM225.87 643.5 a1.63 1.63 0 1 0 3.26 0 a1.63 1.63 0 1 0 -3.26 0z" fill="black"></path><path d="M329.87 890.5 a1.63 1.63 0 1 0 3.26 0 a1.63 1.63 0 1 0 -3.26 0zM290.87 838.5 a1.63 1.63 0 1 0 3.26 0 a1.63 1.63 0 1 0 -3.26 0z" fill="black"></path><path d="M17.87 318.5 a1.63 1.63 0 1 0 3.26 0 a1.63 1.63 0 1 0 -3.26 0zM17.87 461.5 a1.63 1.63 0 1 0 3.26 0 a1.63 1.63 0 1 0 -3.26 0z" fill="black"></path><path d="M56.87 643.5 a1.63 1.63 0 1 0 3.26 0 a1.63 1.63 0 1 0 -3.26 0zM17.87 643.5 a1.63 1.63 0 1 0 3.26 0 a1.63 1.63 0 1 0 -3.26 0z" fill="black"></path><path d="M199.87 227.5 a1.63 1.63 0 1 0 3.26 0 a1.63 1.63 0 1 0 -3.26 0zM238.87 240.5 a1.63 1.63 0 1 0 3.26 0 a1.63 1.63 0 1 0 -3.26 0z" fill="black"></path><path d="M95.87 162.5 a1.63 1.63 0 1 0 3.26 0 a1.63 1.63 0 1 0 -3.26 0zM69.87 123.5 a1.63 1.63 0 1 0 3.26 0 a1.63 1.63 0 1 0 -3.26 0z" fill="black"></path><path d="M121.87 227.5 a1.63 1.63 0 1 0 3.26 0 a1.63 1.63 0 1 0 -3.26 0zM95.87 253.5 a1.63 1.63 0 1 0 3.26 0 a1.63 1.63 0 1 0 -3.26 0z" fill="black"></path><path d="M186.87 435.5 a1.63 1.63 0 1 0 3.26 0 a1.63 1.63 0 1 0 -3.26 0zM212.87 500.5 a1.63 1.63 0 1 0 3.26 0 a1.63 1.63 0 1 0 -3.26 0z" fill="black"></path><path d="M173.87 357.5 a1.63 1.63 0 1 0 3.26 0 a1.63 1.63 0 1 0 -3.26 0zM147.87 331.5 a1.63 1.63 0 1 0 3.26 0 a1.63 1.63 0 1 0 -3.26 0z" fill="black"></path><path d="M17.87 162.5 a1.63 1.63 0 1 0 3.26 0 a1.63 1.63 0 1 0 -3.26 0zM17.87 123.5 a1.63 1.63 0 1 0 3.26 0 a1.63 1.63 0 1 0 -3.26 0z" fill="black"></path><path d="M355.87 214.5 a1.63 1.63 0 1 0 3.26 0 a1.63 1.63 0 1 0 -3.26 0zM394.87 201.5 a1.63 1.63 0 1 0 3.26 0 a1.63 1.63 0 1 0 -3.26 0z" fill="black"></path><path d="M17.87 682.5 a1.63 1.63 0 1 0 3.26 0 a1.63 1.63 0 1 0 -3.26 0zM17.87 656.5 a1.63 1.63 0 1 0 3.26 0 a1.63 1.63 0 1 0 -3.26 0z" fill="black"></path><path d="M95.87 747.5 a1.63 1.63 0 1 0 3.26 0 a1.63 1.63 0 1 0 -3.26 0zM82.87 721.5 a1.63 1.63 0 1 0 3.26 0 a1.63 1.63 0 1 0 -3.26 0z" fill="black"></path><path d="M56.87 45.5 a1.63 1.63 0 1 0 3.26 0 a1.63 1.63 0 1 0 -3.26 0zM56.87 19.5 a1.63 1.63 0 1 0 3.26 0 a1.63 1.63 0 1 0 -3.26 0z" fill="black"></path><path d="M277.87 19.5 a1.63 1.63 0 1 0 3.26 0 a1.63 1.63 0 1 0 -3.26 0zM238.87 19.5 a1.63 1.63 0 1 0 3.26 0 a1.63 1.63 0 1 0 -3.26 0z" fill="black"></path><path d="M121.87 19.5 a1.63 1.63 0 1 0 3.26 0 a1.63 1.63 0 1 0 -3.26 0zM173.87 84.5 a1.63 1.63 0 1 0 3.26 0 a1.63 1.63 0 1 0 -3.26 0z" fill="black"></path><path d="M251.87 604.5 a1.63 1.63 0 1 0 3.26 0 a1.63 1.63 0 1 0 -3.26 0zM225.87 604.5 a1.63 1.63 0 1 0 3.26 0 a1.63 1.63 0 1 0 -3.26 0z" fill="black"></path><path d="M329.87 617.5 a1.63 1.63 0 1 0 3.26 0 a1.63 1.63 0 1 0 -3.26 0zM329.87 591.5 a1.63 1.63 0 1 0 3.26 0 a1.63 1.63 0 1 0 -3.26 0z" fill="black"></path><path d="M381.87 240.5 a1.63 1.63 0 1 0 3.26 0 a1.63 1.63 0 1 0 -3.26 0zM355.87 253.5 a1.63 1.63 0 1 0 3.26 0 a1.63 1.63 0 1 0 -3.26 0z" fill="black"></path><path d="M108.87 344.5 a1.63 1.63 0 1 0 3.26 0 a1.63 1.63 0 1 0 -3.26 0zM82.87 344.5 a1.63 1.63 0 1 0 3.26 0 a1.63 1.63 0 1 0 -3.26 0z" fill="black"></path><path d="M329.87 266.5 a1.63 1.63 0 1 0 3.26 0 a1.63 1.63 0 1 0 -3.26 0zM329.87 240.5 a1.63 1.63 0 1 0 3.26 0 a1.63 1.63 0 1 0 -3.26 0z" fill="black"></path><path d="M342.87 110.5 a1.63 1.63 0 1 0 3.26 0 a1.63 1.63 0 1 0 -3.26 0zM368.87 123.5 a1.63 1.63 0 1 0 3.26 0 a1.63 1.63 0 1 0 -3.26 0z" fill="black"></path><path d="M173.87 604.5 a1.63 1.63 0 1 0 3.26 0 a1.63 1.63 0 1 0 -3.26 0zM121.87 539.5 a1.63 1.63 0 1 0 3.26 0 a1.63 1.63 0 1 0 -3.26 0z" fill="black"></path><path d="M56.87 409.5 a1.63 1.63 0 1 0 3.26 0 a1.63 1.63 0 1 0 -3.26 0zM56.87 383.5 a1.63 1.63 0 1 0 3.26 0 a1.63 1.63 0 1 0 -3.26 0z" fill="black"></path><path d="M368.87 461.5 a1.63 1.63 0 1 0 3.26 0 a1.63 1.63 0 1 0 -3.26 0zM368.87 435.5 a1.63 1.63 0 1 0 3.26 0 a1.63 1.63 0 1 0 -3.26 0z" fill="black"></path><path d="M56.87 760.5 a1.63 1.63 0 1 0 3.26 0 a1.63 1.63 0 1 0 -3.26 0zM108.87 825.5 a1.63 1.63 0 1 0 3.26 0 a1.63 1.63 0 1 0 -3.26 0z" fill="black"></path><path d="M316.87 253.5 a1.63 1.63 0 1 0 3.26 0 a1.63 1.63 0 1 0 -3.26 0zM316.87 279.5 a1.63 1.63 0 1 0 3.26 0 a1.63 1.63 0 1 0 -3.26 0z" fill="black"></path><path d="M381.87 175.5 a1.63 1.63 0 1 0 3.26 0 a1.63 1.63 0 1 0 -3.26 0zM381.87 201.5 a1.63 1.63 0 1 0 3.26 0 a1.63 1.63 0 1 0 -3.26 0z" fill="black"></path><path d="M238.87 526.5 a1.63 1.63 0 1 0 3.26 0 a1.63 1.63 0 1 0 -3.26 0zM264.87 526.5 a1.63 1.63 0 1 0 3.26 0 a1.63 1.63 0 1 0 -3.26 0z" fill="black"></path><path d="M30.87 656.5 a1.63 1.63 0 1 0 3.26 0 a1.63 1.63 0 1 0 -3.26 0zM56.87 656.5 a1.63 1.63 0 1 0 3.26 0 a1.63 1.63 0 1 0 -3.26 0z" fill="black"></path><path d="M30.87 266.5 a1.63 1.63 0 1 0 3.26 0 a1.63 1.63 0 1 0 -3.26 0zM17.87 292.5 a1.63 1.63 0 1 0 3.26 0 a1.63 1.63 0 1 0 -3.26 0z" fill="black"></path><path d="M212.87 851.5 a1.63 1.63 0 1 0 3.26 0 a1.63 1.63 0 1 0 -3.26 0zM225.87 877.5 a1.63 1.63 0 1 0 3.26 0 a1.63 1.63 0 1 0 -3.26 0z" fill="black"></path><path d="M69.87 695.5 a1.63 1.63 0 1 0 3.26 0 a1.63 1.63 0 1 0 -3.26 0zM134.87 721.5 a1.63 1.63 0 1 0 3.26 0 a1.63 1.63 0 1 0 -3.26 0z" fill="black"></path><path d="M82.87 851.5 a1.63 1.63 0 1 0 3.26 0 a1.63 1.63 0 1 0 -3.26 0zM95.87 877.5 a1.63 1.63 0 1 0 3.26 0 a1.63 1.63 0 1 0 -3.26 0z" fill="black"></path><path d="M316.87 890.5 a1.63 1.63 0 1 0 3.26 0 a1.63 1.63 0 1 0 -3.26 0zM290.87 851.5 a1.63 1.63 0 1 0 3.26 0 a1.63 1.63 0 1 0 -3.26 0z" fill="black"></path><path d="M290.87 474.5 a1.63 1.63 0 1 0 3.26 0 a1.63 1.63 0 1 0 -3.26 0zM251.87 500.5 a1.63 1.63 0 1 0 3.26 0 a1.63 1.63 0 1 0 -3.26 0z" fill="black"></path><path d="M303.87 890.5 a1.63 1.63 0 1 0 3.26 0 a1.63 1.63 0 1 0 -3.26 0zM277.87 864.5 a1.63 1.63 0 1 0 3.26 0 a1.63 1.63 0 1 0 -3.26 0z" fill="black"></path><path d="M303.87 786.5 a1.63 1.63 0 1 0 3.26 0 a1.63 1.63 0 1 0 -3.26 0zM303.87 825.5 a1.63 1.63 0 1 0 3.26 0 a1.63 1.63 0 1 0 -3.26 0z" fill="black"></path><path d="M212.87 864.5 a1.63 1.63 0 1 0 3.26 0 a1.63 1.63 0 1 0 -3.26 0zM186.87 877.5 a1.63 1.63 0 1 0 3.26 0 a1.63 1.63 0 1 0 -3.26 0z" fill="black"></path><path d="M212.87 773.5 a1.63 1.63 0 1 0 3.26 0 a1.63 1.63 0 1 0 -3.26 0zM173.87 825.5 a1.63 1.63 0 1 0 3.26 0 a1.63 1.63 0 1 0 -3.26 0z" fill="black"></path><path d="M108.87 396.5 a1.63 1.63 0 1 0 3.26 0 a1.63 1.63 0 1 0 -3.26 0zM160.87 370.5 a1.63 1.63 0 1 0 3.26 0 a1.63 1.63 0 1 0 -3.26 0z" fill="black"></path><path d="M17.87 266.5 a1.63 1.63 0 1 0 3.26 0 a1.63 1.63 0 1 0 -3.26 0zM17.87 227.5 a1.63 1.63 0 1 0 3.26 0 a1.63 1.63 0 1 0 -3.26 0z" fill="black"></path><path d="M17.87 799.5 a1.63 1.63 0 1 0 3.26 0 a1.63 1.63 0 1 0 -3.26 0zM4.87 773.5 a1.63 1.63 0 1 0 3.26 0 a1.63 1.63 0 1 0 -3.26 0z" fill="black"></path><path d="M147.87 578.5 a1.63 1.63 0 1 0 3.26 0 a1.63 1.63 0 1 0 -3.26 0zM121.87 552.5 a1.63 1.63 0 1 0 3.26 0 a1.63 1.63 0 1 0 -3.26 0z" fill="black"></path><path d="M186.87 591.5 a1.63 1.63 0 1 0 3.26 0 a1.63 1.63 0 1 0 -3.26 0zM160.87 604.5 a1.63 1.63 0 1 0 3.26 0 a1.63 1.63 0 1 0 -3.26 0z" fill="black"></path><path d="M69.87 851.5 a1.63 1.63 0 1 0 3.26 0 a1.63 1.63 0 1 0 -3.26 0zM82.87 877.5 a1.63 1.63 0 1 0 3.26 0 a1.63 1.63 0 1 0 -3.26 0z" fill="black"></path><path d="M394.87 110.5 a1.63 1.63 0 1 0 3.26 0 a1.63 1.63 0 1 0 -3.26 0zM368.87 84.5 a1.63 1.63 0 1 0 3.26 0 a1.63 1.63 0 1 0 -3.26 0z" fill="black"></path><path d="M173.87 19.5 a1.63 1.63 0 1 0 3.26 0 a1.63 1.63 0 1 0 -3.26 0zM134.87 6.5 a1.63 1.63 0 1 0 3.26 0 a1.63 1.63 0 1 0 -3.26 0z" fill="black"></path><path d="M30.87 513.5 a1.63 1.63 0 1 0 3.26 0 a1.63 1.63 0 1 0 -3.26 0zM56.87 513.5 a1.63 1.63 0 1 0 3.26 0 a1.63 1.63 0 1 0 -3.26 0z" fill="black"></path><path d="M225.87 435.5 a1.63 1.63 0 1 0 3.26 0 a1.63 1.63 0 1 0 -3.26 0zM225.87 461.5 a1.63 1.63 0 1 0 3.26 0 a1.63 1.63 0 1 0 -3.26 0z" fill="black"></path><path d="M264.87 630.5 a1.63 1.63 0 1 0 3.26 0 a1.63 1.63 0 1 0 -3.26 0zM238.87 617.5 a1.63 1.63 0 1 0 3.26 0 a1.63 1.63 0 1 0 -3.26 0z" fill="black"></path><path d="M4.87 71.5 a1.63 1.63 0 1 0 3.26 0 a1.63 1.63 0 1 0 -3.26 0zM4.87 110.5 a1.63 1.63 0 1 0 3.26 0 a1.63 1.63 0 1 0 -3.26 0z" fill="black"></path><path d="M173.87 565.5 a1.63 1.63 0 1 0 3.26 0 a1.63 1.63 0 1 0 -3.26 0zM173.87 591.5 a1.63 1.63 0 1 0 3.26 0 a1.63 1.63 0 1 0 -3.26 0z" fill="black"></path><path d="M290.87 890.5 a1.63 1.63 0 1 0 3.26 0 a1.63 1.63 0 1 0 -3.26 0zM264.87 890.5 a1.63 1.63 0 1 0 3.26 0 a1.63 1.63 0 1 0 -3.26 0z" fill="black"></path><path d="M212.87 487.5 a1.63 1.63 0 1 0 3.26 0 a1.63 1.63 0 1 0 -3.26 0zM160.87 448.5 a1.63 1.63 0 1 0 3.26 0 a1.63 1.63 0 1 0 -3.26 0z" fill="black"></path><path d="M225.87 695.5 a1.63 1.63 0 1 0 3.26 0 a1.63 1.63 0 1 0 -3.26 0zM186.87 734.5 a1.63 1.63 0 1 0 3.26 0 a1.63 1.63 0 1 0 -3.26 0z" fill="black"></path><path d="M303.87 175.5 a1.63 1.63 0 1 0 3.26 0 a1.63 1.63 0 1 0 -3.26 0zM329.87 162.5 a1.63 1.63 0 1 0 3.26 0 a1.63 1.63 0 1 0 -3.26 0z" fill="black"></path><path d="M368.87 32.5 a1.63 1.63 0 1 0 3.26 0 a1.63 1.63 0 1 0 -3.26 0zM316.87 6.5 a1.63 1.63 0 1 0 3.26 0 a1.63 1.63 0 1 0 -3.26 0z" fill="black"></path><path d="M329.87 786.5 a1.63 1.63 0 1 0 3.26 0 a1.63 1.63 0 1 0 -3.26 0zM316.87 760.5 a1.63 1.63 0 1 0 3.26 0 a1.63 1.63 0 1 0 -3.26 0z" fill="black"></path><path d="M303.87 97.5 a1.63 1.63 0 1 0 3.26 0 a1.63 1.63 0 1 0 -3.26 0zM329.87 71.5 a1.63 1.63 0 1 0 3.26 0 a1.63 1.63 0 1 0 -3.26 0z" fill="black"></path><path d="M56.87 864.5 a1.63 1.63 0 1 0 3.26 0 a1.63 1.63 0 1 0 -3.26 0zM56.87 825.5 a1.63 1.63 0 1 0 3.26 0 a1.63 1.63 0 1 0 -3.26 0z" fill="black"></path><path d="M303.87 123.5 a1.63 1.63 0 1 0 3.26 0 a1.63 1.63 0 1 0 -3.26 0zM290.87 97.5 a1.63 1.63 0 1 0 3.26 0 a1.63 1.63 0 1 0 -3.26 0z" fill="black"></path><path d="M329.87 123.5 a1.63 1.63 0 1 0 3.26 0 a1.63 1.63 0 1 0 -3.26 0zM303.87 110.5 a1.63 1.63 0 1 0 3.26 0 a1.63 1.63 0 1 0 -3.26 0z" fill="black"></path><path d="M199.87 643.5 a1.63 1.63 0 1 0 3.26 0 a1.63 1.63 0 1 0 -3.26 0zM212.87 669.5 a1.63 1.63 0 1 0 3.26 0 a1.63 1.63 0 1 0 -3.26 0z" fill="black"></path><path d="M264.87 71.5 a1.63 1.63 0 1 0 3.26 0 a1.63 1.63 0 1 0 -3.26 0zM199.87 71.5 a1.63 1.63 0 1 0 3.26 0 a1.63 1.63 0 1 0 -3.26 0z" fill="black"></path><path d="M56.87 58.5 a1.63 1.63 0 1 0 3.26 0 a1.63 1.63 0 1 0 -3.26 0zM82.87 58.5 a1.63 1.63 0 1 0 3.26 0 a1.63 1.63 0 1 0 -3.26 0z" fill="black"></path><path d="M147.87 396.5 a1.63 1.63 0 1 0 3.26 0 a1.63 1.63 0 1 0 -3.26 0zM147.87 370.5 a1.63 1.63 0 1 0 3.26 0 a1.63 1.63 0 1 0 -3.26 0z" fill="black"></path><path d="M407.87 84.5 a1.63 1.63 0 1 0 3.26 0 a1.63 1.63 0 1 0 -3.26 0zM381.87 84.5 a1.63 1.63 0 1 0 3.26 0 a1.63 1.63 0 1 0 -3.26 0z" fill="black"></path><path d="M82.87 19.5 a1.63 1.63 0 1 0 3.26 0 a1.63 1.63 0 1 0 -3.26 0zM134.87 58.5 a1.63 1.63 0 1 0 3.26 0 a1.63 1.63 0 1 0 -3.26 0z" fill="black"></path><path d="M186.87 162.5 a1.63 1.63 0 1 0 3.26 0 a1.63 1.63 0 1 0 -3.26 0zM212.87 175.5 a1.63 1.63 0 1 0 3.26 0 a1.63 1.63 0 1 0 -3.26 0z" fill="black"></path><path d="M160.87 266.5 a1.63 1.63 0 1 0 3.26 0 a1.63 1.63 0 1 0 -3.26 0zM186.87 266.5 a1.63 1.63 0 1 0 3.26 0 a1.63 1.63 0 1 0 -3.26 0z" fill="black"></path><path d="M368.87 695.5 a1.63 1.63 0 1 0 3.26 0 a1.63 1.63 0 1 0 -3.26 0zM368.87 669.5 a1.63 1.63 0 1 0 3.26 0 a1.63 1.63 0 1 0 -3.26 0z" fill="black"></path><path d="M108.87 201.5 a1.63 1.63 0 1 0 3.26 0 a1.63 1.63 0 1 0 -3.26 0zM82.87 188.5 a1.63 1.63 0 1 0 3.26 0 a1.63 1.63 0 1 0 -3.26 0z" fill="black"></path><path d="M56.87 448.5 a1.63 1.63 0 1 0 3.26 0 a1.63 1.63 0 1 0 -3.26 0zM108.87 435.5 a1.63 1.63 0 1 0 3.26 0 a1.63 1.63 0 1 0 -3.26 0z" fill="black"></path><path d="M82.87 760.5 a1.63 1.63 0 1 0 3.26 0 a1.63 1.63 0 1 0 -3.26 0zM121.87 760.5 a1.63 1.63 0 1 0 3.26 0 a1.63 1.63 0 1 0 -3.26 0z" fill="black"></path><path d="M30.87 318.5 a1.63 1.63 0 1 0 3.26 0 a1.63 1.63 0 1 0 -3.26 0zM30.87 344.5 a1.63 1.63 0 1 0 3.26 0 a1.63 1.63 0 1 0 -3.26 0z" fill="black"></path><path d="M407.87 409.5 a1.63 1.63 0 1 0 3.26 0 a1.63 1.63 0 1 0 -3.26 0zM407.87 383.5 a1.63 1.63 0 1 0 3.26 0 a1.63 1.63 0 1 0 -3.26 0z" fill="black"></path><path d="M381.87 6.5 a1.63 1.63 0 1 0 3.26 0 a1.63 1.63 0 1 0 -3.26 0zM381.87 32.5 a1.63 1.63 0 1 0 3.26 0 a1.63 1.63 0 1 0 -3.26 0z" fill="black"></path><path d="M290.87 461.5 a1.63 1.63 0 1 0 3.26 0 a1.63 1.63 0 1 0 -3.26 0zM316.87 474.5 a1.63 1.63 0 1 0 3.26 0 a1.63 1.63 0 1 0 -3.26 0z" fill="black"></path><path d="M238.87 227.5 a1.63 1.63 0 1 0 3.26 0 a1.63 1.63 0 1 0 -3.26 0zM212.87 227.5 a1.63 1.63 0 1 0 3.26 0 a1.63 1.63 0 1 0 -3.26 0z" fill="black"></path><path d="M82.87 435.5 a1.63 1.63 0 1 0 3.26 0 a1.63 1.63 0 1 0 -3.26 0zM56.87 435.5 a1.63 1.63 0 1 0 3.26 0 a1.63 1.63 0 1 0 -3.26 0z" fill="black"></path><path d="M316.87 461.5 a1.63 1.63 0 1 0 3.26 0 a1.63 1.63 0 1 0 -3.26 0zM316.87 435.5 a1.63 1.63 0 1 0 3.26 0 a1.63 1.63 0 1 0 -3.26 0z" fill="black"></path><path d="M56.87 630.5 a1.63 1.63 0 1 0 3.26 0 a1.63 1.63 0 1 0 -3.26 0zM30.87 617.5 a1.63 1.63 0 1 0 3.26 0 a1.63 1.63 0 1 0 -3.26 0z" fill="black"></path><path d="M407.87 773.5 a1.63 1.63 0 1 0 3.26 0 a1.63 1.63 0 1 0 -3.26 0zM407.87 721.5 a1.63 1.63 0 1 0 3.26 0 a1.63 1.63 0 1 0 -3.26 0z" fill="black"></path><path d="M186.87 695.5 a1.63 1.63 0 1 0 3.26 0 a1.63 1.63 0 1 0 -3.26 0zM186.87 721.5 a1.63 1.63 0 1 0 3.26 0 a1.63 1.63 0 1 0 -3.26 0z" fill="black"></path></mask></defs></svg>