<svg xmlns="http://www.w3.org/2000/svg" version="1.1" xmlns:xlink="http://www.w3.org/1999/xlink" xmlns:svgjs="http://svgjs.dev/svgjs" width="414" height="896" preserveAspectRatio="none" viewBox="0 0 414 896"><g mask="url(&quot;#SvgjsMask1024&quot;)" fill="none"><rect width="414" height="896" x="0" y="0" fill="rgba(188, 184, 177, 1)"></rect><path d="M8 896L904 0L944.5 0L48.5 896z" fill="url(&quot;#SvgjsLinearGradient1025&quot;)"></path><path d="M155.62 896L1051.62 0L1165.62 0L269.62 896z" fill="url(&quot;#SvgjsLinearGradient1025&quot;)"></path><path d="M396 896L-500 0L-675.5 0L220.5 896z" fill="url(&quot;#SvgjsLinearGradient1026&quot;)"></path><path d="M255.38 896L-640.62 0L-840.12 0L55.879999999999995 896z" fill="url(&quot;#SvgjsLinearGradient1026&quot;)"></path><path d="M174.44432756125724 896L414 656.4443275612573L414 896z" fill="url(&quot;#SvgjsLinearGradient1025&quot;)"></path><path d="M0 896L239.55567243874276 896L 0 656.4443275612573z" fill="url(&quot;#SvgjsLinearGradient1026&quot;)"></path></g><defs><mask id="SvgjsMask1024"><rect width="414" height="896" fill="#ffffff"></rect></mask><linearGradient x1="0%" y1="100%" x2="100%" y2="0%" id="SvgjsLinearGradient1025"><stop stop-color="rgba(244, 243, 238, 1)" offset="0"></stop><stop stop-opacity="0" stop-color="rgba(244, 243, 238, 1)" offset="0.66"></stop></linearGradient><linearGradient x1="100%" y1="100%" x2="0%" y2="0%" id="SvgjsLinearGradient1026"><stop stop-color="rgba(244, 243, 238, 1)" offset="0"></stop><stop stop-opacity="0" stop-color="rgba(244, 243, 238, 1)" offset="0.66"></stop></linearGradient></defs></svg>