<svg xmlns="http://www.w3.org/2000/svg" version="1.1" xmlns:xlink="http://www.w3.org/1999/xlink" xmlns:svgjs="http://svgjs.dev/svgjs" width="1920" height="1080" preserveAspectRatio="none" viewBox="0 0 1920 1080"><g mask="url(&quot;#SvgjsMask1054&quot;)" fill="none"><rect width="1920" height="1080" x="0" y="0" fill="rgba(188, 184, 177, 1)"></rect><path d="M12 1080L1092 0L1395 0L315 1080z" fill="url(&quot;#SvgjsLinearGradient1055&quot;)"></path><path d="M724.6 1080L1804.6 0L2080.6 0L1000.6 1080z" fill="url(&quot;#SvgjsLinearGradient1055&quot;)"></path><path d="M1825 1080L745 0L134.5 0L1214.5 1080z" fill="url(&quot;#SvgjsLinearGradient1056&quot;)"></path><path d="M1178.4 1080L98.40000000000009 0L-723.5999999999999 0L356.4000000000001 1080z" fill="url(&quot;#SvgjsLinearGradient1056&quot;)"></path><path d="M1138.8816973620746 1080L1920 298.88169736207453L1920 1080z" fill="url(&quot;#SvgjsLinearGradient1055&quot;)"></path><path d="M0 1080L781.1183026379255 1080L 0 298.88169736207453z" fill="url(&quot;#SvgjsLinearGradient1056&quot;)"></path></g><defs><mask id="SvgjsMask1054"><rect width="1920" height="1080" fill="#ffffff"></rect></mask><linearGradient x1="0%" y1="100%" x2="100%" y2="0%" id="SvgjsLinearGradient1055"><stop stop-color="rgba(244, 243, 238, 0.26)" offset="0"></stop><stop stop-opacity="0" stop-color="rgba(244, 243, 238, 0.26)" offset="0.66"></stop></linearGradient><linearGradient x1="100%" y1="100%" x2="0%" y2="0%" id="SvgjsLinearGradient1056"><stop stop-color="rgba(244, 243, 238, 0.26)" offset="0"></stop><stop stop-opacity="0" stop-color="rgba(244, 243, 238, 0.26)" offset="0.66"></stop></linearGradient></defs></svg>